<svg width="46" height="60" viewBox="0 0 46 60" fill="none" xmlns="http://www.w3.org/2000/svg">
<rect x="0.905605" y="0.905605" width="43.469" height="43.469" rx="21.7345" stroke="#FCC436" stroke-width="1.81121"/>
<path d="M17.5871 21.7288C17.5871 21.7288 16.0943 21.6216 15.7117 21.239C15.3292 20.8564 15.3292 20.2361 15.7117 19.8535C16.0943 19.4709 16.7147 19.4709 17.0972 19.8535C17.4798 20.2361 17.5871 21.7288 17.5871 21.7288Z" fill="#FCC436"/>
<mask id="path-4-outside-1_15_1131" maskUnits="userSpaceOnUse" x="9.13391" y="6.96165" width="27" height="16" fill="black">
<rect fill="white" x="9.13391" y="6.96165" width="27" height="16"/>
<path d="M14.3822 19.3657L15.3803 14.8356C15.3803 14.8356 11.618 14.5284 12.1939 11.1884C12.1939 11.1884 17.0695 12.8009 18.4516 11.4188C18.4516 11.4188 21.507 8.15431 26.385 11.3978C28.0126 12.48 32.6428 11.1674 32.6428 11.1674C33.2186 14.5074 29.4563 14.8146 29.4563 14.8146L30.4545 19.3447"/>
</mask>
<path d="M11.729 18.7811C11.4061 20.2464 12.3323 21.696 13.7976 22.0189C15.2629 22.3417 16.7125 21.4156 17.0353 19.9503L11.729 18.7811ZM15.3803 14.8356L18.0335 15.4202C18.2023 14.654 18.0317 13.8523 17.5656 13.2213C17.0994 12.5903 16.3833 12.1916 15.6014 12.1278L15.3803 14.8356ZM12.1939 11.1884L13.0469 8.60902C12.2961 8.36073 11.4744 8.45188 10.7963 8.85867C10.1181 9.26547 9.65091 9.94754 9.51655 10.7268L12.1939 11.1884ZM18.4516 11.4188L20.3727 13.3398C20.3939 13.3187 20.4147 13.2971 20.4351 13.2753L18.4516 11.4188ZM26.385 11.3978L27.8893 9.13542L27.8893 9.1354L26.385 11.3978ZM32.6428 11.1674L35.3201 10.7058C35.1892 9.94668 34.7422 9.2788 34.0903 8.86836C33.4384 8.45792 32.6429 8.34351 31.9018 8.55361L32.6428 11.1674ZM29.4563 14.8146L29.2352 12.1068C28.4533 12.1706 27.7372 12.5693 27.271 13.2003C26.8049 13.8313 26.6343 14.633 26.8031 15.3992L29.4563 14.8146ZM27.8013 19.9293C28.1242 21.3946 29.5737 22.3207 31.0391 21.9979C32.5044 21.675 33.4305 20.2254 33.1076 18.7601L27.8013 19.9293ZM17.0353 19.9503L18.0335 15.4202L12.7272 14.251L11.729 18.7811L17.0353 19.9503ZM15.3803 14.8356C15.6014 12.1278 15.6026 12.1279 15.6037 12.128C15.6041 12.128 15.6052 12.1281 15.606 12.1281C15.6074 12.1283 15.6089 12.1284 15.6102 12.1285C15.613 12.1287 15.6155 12.129 15.6179 12.1292C15.6226 12.1296 15.6265 12.13 15.6297 12.1303C15.636 12.1309 15.6394 12.1312 15.6401 12.1313C15.6413 12.1315 15.632 12.1304 15.614 12.1278C15.5769 12.1224 15.5096 12.111 15.4245 12.091C15.2379 12.047 15.052 11.9813 14.9148 11.9032C14.7824 11.8279 14.7983 11.8011 14.8342 11.867C14.8905 11.9703 14.8181 11.9578 14.8712 11.6501L9.51655 10.7268C9.28167 12.0891 9.46362 13.3675 10.0634 14.4677C10.6428 15.5306 11.4913 16.2069 12.2275 16.6258C12.9589 17.042 13.6776 17.2618 14.1784 17.3798C14.437 17.4407 14.6592 17.4795 14.8256 17.5039C14.9093 17.5162 14.9803 17.525 15.0364 17.5313C15.0644 17.5344 15.0889 17.5369 15.1094 17.5389C15.1197 17.5399 15.129 17.5408 15.1373 17.5415C15.1415 17.5419 15.1454 17.5422 15.1491 17.5425C15.1509 17.5427 15.1527 17.5428 15.1544 17.543C15.1552 17.543 15.1565 17.5431 15.1569 17.5432C15.1581 17.5433 15.1593 17.5434 15.3803 14.8356ZM12.1939 11.1884C11.3408 13.7679 11.3413 13.768 11.3417 13.7682C11.3419 13.7682 11.3424 13.7684 11.3428 13.7685C11.3435 13.7687 11.3443 13.769 11.3452 13.7693C11.3469 13.7699 11.349 13.7705 11.3513 13.7713C11.356 13.7729 11.3619 13.7748 11.369 13.7771C11.3831 13.7817 11.4019 13.7877 11.425 13.7951C11.4714 13.8098 11.5354 13.8299 11.6151 13.8542C11.7743 13.9026 11.9974 13.9681 12.2674 14.0412C12.8017 14.1858 13.5476 14.3676 14.3608 14.5022C15.1525 14.6333 16.123 14.7395 17.0705 14.6767C17.9165 14.6206 19.3145 14.3981 20.3727 13.3398L16.5305 9.49773C16.8977 9.13048 17.1679 9.2247 16.711 9.255C16.3557 9.27856 15.8481 9.24086 15.2481 9.14155C14.6697 9.04581 14.1103 8.91089 13.6871 8.79635C13.4785 8.73988 13.3099 8.69025 13.197 8.65589C13.1407 8.63875 13.0986 8.62554 13.0729 8.61734C13.06 8.61325 13.0512 8.61042 13.0468 8.60898C13.0446 8.60826 13.0435 8.6079 13.0435 8.6079C13.0435 8.6079 13.0438 8.60799 13.0443 8.60818C13.0446 8.60827 13.045 8.60839 13.0454 8.60853C13.0456 8.6086 13.046 8.60872 13.0461 8.60876C13.0465 8.60889 13.0469 8.60902 12.1939 11.1884ZM18.4516 11.4188C20.4351 13.2753 20.434 13.2765 20.4328 13.2778C20.4325 13.2782 20.4313 13.2794 20.4306 13.2802C20.4291 13.2817 20.4276 13.2833 20.4262 13.2848C20.4234 13.2877 20.4208 13.2905 20.4183 13.2932C20.4133 13.2984 20.4089 13.3029 20.4051 13.3068C20.3975 13.3146 20.3923 13.3197 20.3895 13.3225C20.3839 13.328 20.3874 13.3243 20.3997 13.3133C20.4248 13.2909 20.4824 13.242 20.5694 13.1808C20.747 13.0557 21.0189 12.8991 21.3673 12.7949C21.9483 12.6212 23.0975 12.4744 24.8808 13.6601L27.8893 9.1354C24.7946 7.07768 21.9771 6.94133 19.8108 7.58901C18.7856 7.89553 17.9888 8.35234 17.4411 8.73799C17.1655 8.93208 16.9462 9.11287 16.7851 9.25637C16.7043 9.32834 16.6374 9.3916 16.5847 9.44332C16.5583 9.46921 16.5354 9.49228 16.516 9.51219C16.5063 9.52215 16.4974 9.53133 16.4894 9.53968C16.4854 9.54386 16.4817 9.54783 16.4781 9.55159C16.4763 9.55347 16.4746 9.5553 16.4729 9.55708C16.4721 9.55796 16.4709 9.55926 16.4705 9.5597C16.4693 9.56098 16.4681 9.56224 18.4516 11.4188ZM24.8807 13.6601C25.914 14.3472 27.1169 14.4968 27.9301 14.5325C28.8254 14.5719 29.7393 14.4869 30.5054 14.3784C31.2857 14.2678 31.9955 14.1205 32.5053 14.0027C32.7625 13.9433 32.9741 13.8902 33.1249 13.8509C33.2004 13.8313 33.2609 13.8151 33.3046 13.8031C33.3265 13.7972 33.3442 13.7923 33.3574 13.7886C33.3641 13.7868 33.3696 13.7852 33.374 13.784C33.3762 13.7834 33.3781 13.7828 33.3797 13.7824C33.3805 13.7822 33.3813 13.7819 33.3819 13.7818C33.3823 13.7817 33.3827 13.7815 33.3829 13.7815C33.3833 13.7814 33.3837 13.7812 32.6428 11.1674C31.9018 8.55361 31.9022 8.5535 31.9025 8.5534C31.9026 8.55337 31.903 8.55327 31.9032 8.55322C31.9036 8.55311 31.9039 8.55302 31.9041 8.55295C31.9046 8.55281 31.9049 8.55274 31.9048 8.55275C31.9048 8.55277 31.9036 8.55309 31.9014 8.5537C31.8971 8.55491 31.8885 8.55727 31.8761 8.56066C31.8512 8.56745 31.8107 8.57835 31.7564 8.59248C31.6476 8.6208 31.4848 8.66175 31.2824 8.70849C30.8732 8.80301 30.3238 8.91619 29.7431 8.99849C29.1481 9.08279 28.5994 9.12306 28.1687 9.10414C27.6561 9.08161 27.6698 8.98946 27.8893 9.13542L24.8807 13.6601ZM29.9655 11.629C30.0185 11.9367 29.9461 11.9493 30.0024 11.846C30.0384 11.7801 30.0542 11.8069 29.9218 11.8822C29.7847 11.9603 29.5987 12.026 29.4121 12.07C29.327 12.09 29.2597 12.1013 29.2226 12.1068C29.2046 12.1094 29.1953 12.1104 29.1966 12.1103C29.1972 12.1102 29.2006 12.1099 29.2069 12.1092C29.2101 12.1089 29.214 12.1086 29.2187 12.1082C29.2211 12.1079 29.2236 12.1077 29.2264 12.1075C29.2278 12.1074 29.2292 12.1073 29.2307 12.1071C29.2314 12.1071 29.2325 12.107 29.2329 12.1069C29.2341 12.1068 29.2352 12.1068 29.4563 14.8146C29.6773 17.5224 29.6785 17.5223 29.6798 17.5222C29.6802 17.5221 29.6814 17.522 29.6823 17.522C29.684 17.5218 29.6857 17.5217 29.6876 17.5215C29.6912 17.5212 29.6951 17.5209 29.6993 17.5205C29.7076 17.5198 29.7169 17.5189 29.7272 17.5179C29.7477 17.5159 29.7722 17.5134 29.8002 17.5103C29.8563 17.504 29.9273 17.4952 30.011 17.4829C30.1775 17.4585 30.3996 17.4197 30.6582 17.3588C31.1591 17.2408 31.8777 17.021 32.6092 16.6048C33.3453 16.1858 34.1938 15.5096 34.7732 14.4467C35.373 13.3465 35.555 12.0681 35.3201 10.7058L29.9655 11.629ZM26.8031 15.3992L27.8013 19.9293L33.1076 18.7601L32.1095 14.23L26.8031 15.3992Z" fill="#FCC436" mask="url(#path-4-outside-1_15_1131)"/>
<path d="M18.724 29.0475H26.4276C26.5608 29.0475 26.6884 29.1032 26.7745 29.2048C27.1893 29.6943 28.3147 31.3343 27.8004 34.2486C27.7105 34.7583 27.2299 35.1019 26.7209 35.0081C25.0182 34.6943 21.1739 34.1316 18.5114 34.8482C17.9697 34.994 17.4306 34.6258 17.3636 34.0689C17.2157 32.8386 17.209 30.822 18.3483 29.235C18.4341 29.1155 18.577 29.0475 18.724 29.0475Z" fill="#FCC436"/>
<path d="M19.4021 31.1425C19.4021 31.1425 19.0658 32.5411 20.947 32.5758" stroke="white" stroke-width="0.905605" stroke-miterlimit="10" stroke-linecap="round" stroke-linejoin="round"/>
<path d="M19.0399 36.6236C19.0399 36.6236 22.1496 40.5011 25.7967 36.7772" stroke="#FCC436" stroke-width="2.71681" stroke-miterlimit="10" stroke-linecap="round" stroke-linejoin="round"/>
<path d="M13.3528 16.387C11.8518 15.4281 9.73811 14.1399 7.26133 14.7496C7.26133 14.7496 6.53189 21.6216 14.786 22.3511L15.3803 22.7826C15.3803 22.7826 14.2583 27.151 15.9984 30.6701" stroke="#FCC436" stroke-width="2.71681" stroke-miterlimit="10" stroke-linecap="round" stroke-linejoin="round"/>
<path d="M27.2495 21.7065C27.2495 21.7065 28.7423 21.5992 29.1249 21.2167C29.5075 20.8341 29.5075 20.2137 29.1249 19.8312C28.7423 19.4486 28.1219 19.4486 27.7394 19.8312C27.3568 20.2137 27.2495 21.7065 27.2495 21.7065Z" fill="#FCC436"/>
<path d="M25.9243 31.1215C25.9243 31.1215 26.2606 32.5201 24.3794 32.5548" stroke="white" stroke-width="0.905605" stroke-miterlimit="10" stroke-linecap="round" stroke-linejoin="round"/>
<path d="M31.6029 16.291C33.0957 15.3662 35.1633 14.1348 37.5752 14.7286C37.5752 14.7286 38.3046 21.6006 30.0506 22.33L29.4562 22.7616C29.4562 22.7616 30.6996 26.6692 28.9595 30.1884" stroke="#FCC436" stroke-width="2.71681" stroke-miterlimit="10" stroke-linecap="round" stroke-linejoin="round"/>
</svg>
