<svg width="54" height="60" viewBox="0 0 54 60" fill="none" xmlns="http://www.w3.org/2000/svg">
<rect x="4.9056" y="0.905597" width="43.469" height="43.469" rx="21.7345" stroke="#FCC436" stroke-width="1.81121"/>
<path d="M36.2922 19.7364V30.9394C36.2922 31.6862 36.028 32.3239 35.4995 32.8523C34.9711 33.3808 34.3334 33.645 33.5866 33.645H20.0584C19.3116 33.645 18.6739 33.3808 18.1455 32.8523C17.617 32.3239 17.3528 31.6862 17.3528 30.9394V19.7364C16.9442 19.4968 16.6165 19.1727 16.3699 18.7641C16.1233 18.3554 16 17.9045 16 17.4113C16 16.4248 16.4826 15.5194 17.4479 14.6951C18.4132 13.8707 19.7273 13.2154 21.3901 12.7293C23.0529 12.2431 24.8637 12 26.8225 12C28.7813 12 30.5921 12.2431 32.2549 12.7293C33.9177 13.2154 35.2318 13.8707 36.1971 14.6951C37.1624 15.5194 37.645 16.4248 37.645 17.4113C37.645 17.9045 37.5217 18.3554 37.2751 18.7641C37.0285 19.1727 36.7008 19.4968 36.2922 19.7364Z" fill="#FCC436"/>
<path d="M26.4559 23.0859C26.4906 22.9217 26.5884 22.7578 26.7052 22.6486C26.7619 22.5955 26.8092 22.5685 26.8369 22.5574L26.8421 22.5554C27.1553 22.6061 27.4561 22.4021 27.5223 22.0884C27.5905 21.7652 27.3838 21.4479 27.0606 21.3796C26.5799 21.2782 26.1524 21.5276 25.888 21.7749C25.6049 22.0398 25.3744 22.4178 25.2855 22.8388C25.2172 23.1621 25.424 23.4794 25.7472 23.5476C26.0704 23.6158 26.3877 23.4091 26.4559 23.0859Z" fill="white"/>
<path d="M21.4655 20.2267C19.3276 21.9298 19.2724 24.8155 20.2743 26.7596C20.9476 28.0661 22.2425 29.2289 24.1848 29.2289C24.6667 29.2289 25.0143 29.2157 25.288 29.2053C26.1172 29.1738 26.2677 29.1681 27.422 29.634C28.9573 30.2536 30.5899 30.0697 31.9541 29.2094C33.1818 28.4352 33.8864 26.6375 33.767 25.1786C33.7036 24.4053 33.7729 24.0899 33.852 23.7299C33.9221 23.4108 34 23.0566 34 22.3172C34 20.7437 33.5338 19.7406 33.0677 18.9202C32.6016 18.0997 32.095 17.2869 30.6593 16.3723C29.48 15.6212 27.2463 15.2613 25.4797 16.2417C24.1848 16.9603 23.5374 17.6136 22.7604 18.9202C22.4663 19.4148 22.1842 19.6542 21.4655 20.2267ZM31.129 23.1814C31.129 25.3615 29.3616 27.129 27.1814 27.129C25.0012 27.129 23.2338 25.3615 23.2338 23.1814C23.2338 21.0012 25.0012 19.2338 27.1814 19.2338C29.3616 19.2338 31.129 21.0012 31.129 23.1814Z" fill="white"/>
</svg>
