<svg width="46" height="60" viewBox="0 0 46 60" fill="none" xmlns="http://www.w3.org/2000/svg">
<rect x="0.905605" y="0.905605" width="43.469" height="43.469" rx="21.7345" stroke="#FCC436" stroke-width="1.81121"/>
<path d="M26.9502 14.3857C26.9502 14.3857 29.0643 10.8823 28.0978 10.3991C27.1314 9.9159 25.6817 10.8823 25.6817 10.8823C25.6817 10.8823 26.6481 7.49977 24.7152 7.49977C22.7823 7.49977 22.2991 9.43267 22.2991 9.43267C22.2991 9.43267 21.5951 5.42384 18.9165 6.53332C17.2427 7.22675 16.5004 8.94945 18.9165 13.7817" fill="#FCC436"/>
<path d="M18.9049 24.1084C19.6551 24.1084 20.2633 23.5002 20.2633 22.75C20.2633 21.9998 19.6551 21.3916 18.9049 21.3916C18.1547 21.3916 17.5465 21.9998 17.5465 22.75C17.5465 23.5002 18.1547 24.1084 18.9049 24.1084Z" fill="#FCC436"/>
<path d="M27.603 24.1084C28.3533 24.1084 28.9614 23.5002 28.9614 22.75C28.9614 21.9998 28.3533 21.3916 27.603 21.3916C26.8528 21.3916 26.2446 21.9998 26.2446 22.75C26.2446 23.5002 26.8528 24.1084 27.603 24.1084Z" fill="#FCC436"/>
<path d="M22.8718 24.291C22.8718 24.291 31.5698 23.8077 22.8718 32.989C22.8718 32.989 14.1737 24.291 22.8718 24.291Z" fill="#FCC436"/>
<path d="M22.862 34.4387C22.9073 35.7963 22.908 35.7963 22.9087 35.7963L22.9105 35.7962L22.915 35.7961L22.928 35.7956L22.9696 35.7937C23.004 35.792 23.0518 35.7894 23.1119 35.7855C23.2319 35.7776 23.4013 35.7644 23.6109 35.7427C24.0292 35.6993 24.6128 35.6214 25.288 35.4822C26.62 35.2078 28.3953 34.6777 29.9579 33.636C31.5474 32.5763 32.9556 30.9547 33.374 28.5563C33.7821 26.2163 33.2083 23.3565 31.3474 19.8579C31.327 19.8067 31.2989 19.7382 31.2626 19.6548C31.1871 19.4813 31.0758 19.2418 30.9254 18.9582C30.6262 18.3939 30.1637 17.6393 29.5076 16.8795C28.1899 15.3538 26.0318 13.7513 22.862 13.7513C19.6923 13.7513 17.5342 15.3538 16.2165 16.8795C15.5603 17.6393 15.0978 18.3939 14.7986 18.9582C14.6482 19.2418 14.537 19.4813 14.4615 19.6548C14.4252 19.7382 14.397 19.8067 14.3766 19.8579C12.5157 23.3565 11.942 26.2163 12.3501 28.5563C12.7684 30.9547 14.1766 32.5763 15.7662 33.636C17.3287 34.6777 19.104 35.2078 20.436 35.4822C21.1112 35.6214 21.6948 35.6993 22.1132 35.7427C22.3228 35.7644 22.4921 35.7776 22.6122 35.7855C22.6722 35.7894 22.72 35.792 22.7545 35.7937L22.796 35.7956L22.8091 35.7961L22.8136 35.7962L22.8153 35.7963C22.8161 35.7963 22.8168 35.7963 22.862 34.4387ZM22.862 34.4387L22.8168 35.7963C22.8469 35.7973 22.8771 35.7973 22.9073 35.7963L22.862 34.4387Z" stroke="#FCC436" stroke-width="2.71681" stroke-miterlimit="10" stroke-linecap="round" stroke-linejoin="round"/>
</svg>
