<svg width="46" height="60" viewBox="0 0 46 60" fill="none" xmlns="http://www.w3.org/2000/svg">
<rect x="0.905605" y="0.905605" width="43.469" height="43.469" rx="21.7345" stroke="#FCC436" stroke-width="1.81121"/>
<g clip-path="url(#clip0_2906_19)">
<path d="M31.8741 7.85034L31.8738 7.85029C31.8072 7.83698 31.1104 7.70341 30.1907 7.76713C29.2725 7.83074 28.109 8.09268 27.1336 8.89177C26.355 9.52962 25.8299 10.387 25.5553 11.4384C23.9442 10.866 22.1382 10.8357 20.4451 11.4386C20.1705 10.3872 19.6454 9.5297 18.8667 8.89182C17.8912 8.09274 16.7277 7.83077 15.8096 7.76714C14.8899 7.7034 14.193 7.83694 14.1263 7.85032L14.1262 7.85034C13.45 7.98614 13.0086 8.64487 13.1445 9.32236L13.1445 9.32238C13.28 9.99762 13.9347 10.4377 14.6116 10.3029C14.6455 10.2968 15.0569 10.226 15.5868 10.2552C16.145 10.2859 16.7985 10.4258 17.2891 10.8313C17.7557 11.2171 18.0537 11.845 18.1434 12.7456C17.6034 13.1923 17.1244 13.714 16.7229 14.2981H10.4148C9.72438 14.2981 9.16467 14.8578 9.16467 15.5482C9.16467 18.3607 11.6006 20.5488 14.366 20.2792C14.3166 20.4224 14.2576 20.5934 14.1893 20.7911C13.794 21.9365 13.0879 23.9821 12.1283 26.7613C11.903 27.4139 12.2493 28.1256 12.902 28.3508C13.5547 28.5761 14.2663 28.2297 14.4915 27.5772L14.8362 26.5791L18.1646 34.9663C18.9536 36.9547 20.8444 38.2422 22.9825 38.2493L22.9845 38.2495C22.9883 38.2497 22.9937 38.2499 23.0002 38.2499C23.0032 38.2499 23.0061 38.2498 23.0086 38.2498C23.0114 38.2497 23.0138 38.2496 23.0158 38.2495L23.0178 38.2493C25.1555 38.2422 27.0463 36.9548 27.8356 34.9664L27.8356 34.9664L31.164 26.5793L31.5085 27.5772L31.5085 27.5772C31.7339 28.23 32.4456 28.5761 33.098 28.3508L33.0981 28.3508C33.7507 28.1255 34.097 27.4139 33.8717 26.7613L33.6354 26.8429L33.8717 26.7613C33.6484 26.1147 33.4544 25.5528 33.2839 25.0594C32.3136 22.25 32.1096 21.6595 31.6473 20.2805C34.4153 20.543 36.8354 18.3476 36.8354 15.5482C36.8354 14.8578 36.2757 14.2981 35.5853 14.2981H29.28C28.8911 13.7005 28.4412 13.2098 27.8574 12.7402C27.9477 11.8424 28.2455 11.2163 28.7111 10.8313C29.2017 10.4258 29.8553 10.2859 30.4131 10.255C30.9496 10.2253 31.3634 10.2983 31.3824 10.3017C31.383 10.3018 31.3832 10.3018 31.383 10.3018L31.4312 10.0565L31.3822 10.3016C32.0595 10.437 32.7178 9.99883 32.8536 9.32198C32.9895 8.64501 32.5509 7.9862 31.8741 7.85034ZM25.4895 29.5873L25.4895 29.5873C26.1883 28.7802 25.6156 27.5188 24.5445 27.5188H21.4558C20.3885 27.5188 19.8096 28.7774 20.5108 29.5873L20.5108 29.5873L21.7501 31.0182V35.4461C21.1877 35.1541 20.7351 34.6656 20.4885 34.0442L20.2562 34.1364L20.4885 34.0442L16.0875 22.9541C17.6453 18.4424 17.7367 18.1783 17.8274 17.9138C17.8471 17.8562 17.8668 17.7986 17.9016 17.6971L17.9017 17.697C18.8603 14.8974 20.9328 13.4848 22.9747 13.4584C25.0127 13.432 27.1018 14.7862 28.0981 17.6956L28.0981 17.6957C28.2809 18.2293 28.9957 20.2982 29.4814 21.7037C29.6829 22.2868 29.8449 22.7558 29.9131 22.9536L25.5118 34.0441C25.2651 34.6655 24.8126 35.154 24.2502 35.4461V31.0182L25.4895 29.5873ZM15.4199 17.2264C14.3865 18.1535 12.7866 17.9211 12.0426 16.7983H15.5666C15.5528 16.8385 15.5388 16.8794 15.5245 16.9211C15.4913 17.0182 15.4566 17.1195 15.4199 17.2264ZM33.9573 16.7983C33.227 17.8991 31.666 18.1529 30.6227 17.2625C30.5656 17.1025 30.5094 16.9478 30.454 16.7983H33.9573Z" fill="#FCC436" stroke="#FCC436" stroke-width="0.5"/>
<path d="M25.7549 23.9374C26.4856 23.9374 27.0779 23.3451 27.0779 22.6145C27.0779 21.8839 26.4856 21.2916 25.7549 21.2916C25.0243 21.2916 24.432 21.8839 24.432 22.6145C24.432 23.3451 25.0243 23.9374 25.7549 23.9374Z" fill="#FCC436"/>
<path d="M20.2855 23.9374C21.0161 23.9374 21.6084 23.3451 21.6084 22.6145C21.6084 21.8839 21.0161 21.2916 20.2855 21.2916C19.5548 21.2916 18.9625 21.8839 18.9625 22.6145C18.9625 23.3451 19.5548 23.9374 20.2855 23.9374Z" fill="#FCC436"/>
</g>
<defs>
<clipPath id="clip0_2906_19">
<rect width="30" height="30" fill="white" transform="translate(8 8)"/>
</clipPath>
</defs>
</svg>
