<svg width="54" height="69" viewBox="0 0 54 69" fill="none" xmlns="http://www.w3.org/2000/svg">
<rect x="4.9056" y="0.905605" width="43.469" height="43.469" rx="21.7345" stroke="#FCC436" stroke-width="1.81121"/>
<path d="M25.7609 12C24.6231 12 23.653 12.5314 22.9076 13.284C22.501 13.127 22.1158 12.913 21.6522 12.913C19.6442 12.913 18 14.5572 18 16.5652C18 17.5032 18.3816 18.3414 18.9701 18.9905C18.9344 19.0904 18.913 19.1974 18.913 19.3043V31.1739C18.913 32.6754 20.1506 33.913 21.6522 33.913H32.6087C34.1102 33.913 35.3478 32.6754 35.3478 31.1739V29.3478H36.2609C37.7624 29.3478 39 28.1102 39 26.6087V22.9565C39 21.455 37.7624 20.2174 36.2609 20.2174H35.3478V19.1332C35.355 19.0654 35.355 19.0012 35.3478 18.9334C35.9042 18.2914 36.2609 17.4747 36.2609 16.5652C36.2609 14.5572 34.6167 12.913 32.6087 12.913C31.9275 12.913 31.3247 13.1556 30.7826 13.4837C30.2405 13.1556 29.6377 12.913 28.9565 12.913C28.7211 12.913 28.5357 12.9844 28.3288 13.0272C27.6191 12.4316 26.7595 12 25.7609 12ZM23.6495 19.5326C24.2736 19.9214 24.9727 20.2174 25.7609 20.2174C25.8572 20.2174 25.9 20.171 25.9891 20.1603C25.9142 20.5134 25.9178 20.9664 25.8179 21.2731C25.6004 21.9436 25.3043 22.5856 25.3043 23.413C25.3043 25.1678 26.7452 26.6087 28.5 26.6087C30.2548 26.6087 31.6957 25.1678 31.6957 23.413C31.6957 22.5856 31.3996 21.94 31.1821 21.2731C31.0644 20.9093 31.0323 20.3957 30.9538 19.9606C31.5387 20.0961 31.8027 20.2174 32.6087 20.2174C32.9226 20.2174 33.2293 20.1496 33.5217 20.0747V20.8451C33.4682 21.0234 33.4682 21.2089 33.5217 21.3872V28.2636C33.4968 28.3849 33.4968 28.5132 33.5217 28.6345V31.1739C33.5217 31.6911 33.1258 32.087 32.6087 32.087H21.6522C21.135 32.087 20.7391 31.6911 20.7391 31.1739V20.0747C21.0316 20.1496 21.3383 20.2174 21.6522 20.2174C22.4047 20.2174 23.0681 19.9249 23.6495 19.5326ZM35.3478 22.0435H36.2609C36.778 22.0435 37.1739 22.4394 37.1739 22.9565V26.6087C37.1739 27.1258 36.778 27.5217 36.2609 27.5217H35.3478V22.0435Z" fill="#FCC436"/>

</svg>
