<svg width="46" height="60" viewBox="0 0 46 60" fill="none" xmlns="http://www.w3.org/2000/svg">
<rect x="0.905605" y="0.905605" width="43.469" height="43.469" rx="21.7345" stroke="#FCC436" stroke-width="1.81121"/>
<path d="M15.2223 51.0764C15.6153 51.0764 15.9528 51.1304 16.2348 51.2384C16.5198 51.3434 16.7388 51.5129 16.8918 51.7469C17.0448 51.9779 17.1213 52.2779 17.1213 52.6469C17.1213 52.9919 17.0493 53.2799 16.9053 53.5109C16.7643 53.7419 16.5813 53.9159 16.3563 54.0329C16.1343 54.1499 15.9003 54.2129 15.6543 54.2219C15.9243 54.2279 16.1808 54.2879 16.4238 54.4019C16.6698 54.5129 16.8708 54.6899 17.0268 54.9329C17.1828 55.1729 17.2608 55.4924 17.2608 55.8914C17.2608 56.2874 17.1813 56.6219 17.0223 56.8949C16.8633 57.1649 16.6293 57.3689 16.3203 57.5069C16.0143 57.6449 15.6333 57.7139 15.1773 57.7139H13.1568V51.0764H15.2223ZM13.7013 54.1904L13.5078 53.9969H14.8848C15.4068 53.9969 15.8163 53.8934 16.1133 53.6864C16.4103 53.4764 16.5588 53.1554 16.5588 52.7234C16.5588 52.4324 16.4973 52.2029 16.3743 52.0349C16.2513 51.8669 16.0788 51.7469 15.8568 51.6749C15.6378 51.6029 15.3843 51.5669 15.0963 51.5669H13.4493L13.7013 51.2564V54.1904ZM15.0738 57.2234C15.5658 57.2234 15.9573 57.1139 16.2483 56.8949C16.5423 56.6759 16.6893 56.3324 16.6893 55.8644C16.6893 55.5854 16.6398 55.3574 16.5408 55.1804C16.4448 55.0004 16.3128 54.8609 16.1448 54.7619C15.9768 54.6599 15.7863 54.5894 15.5733 54.5504C15.3603 54.5084 15.1398 54.4874 14.9118 54.4874H13.5078L13.7013 54.2984V57.5339L13.4493 57.2234H15.0738ZM18.7423 55.5584V55.0589H22.6123L22.5043 55.2119C22.5043 55.1939 22.5043 55.1789 22.5043 55.1669C22.5043 55.1519 22.5043 55.1369 22.5043 55.1219C22.5043 54.8129 22.4383 54.5249 22.3063 54.2579C22.1743 53.9909 21.9823 53.7764 21.7303 53.6144C21.4813 53.4524 21.1768 53.3714 20.8168 53.3714C20.4508 53.3714 20.1283 53.4554 19.8493 53.6234C19.5703 53.7884 19.3528 54.0179 19.1968 54.3119C19.0408 54.6029 18.9628 54.9419 18.9628 55.3289C18.9628 55.7189 19.0393 56.0624 19.1923 56.3594C19.3483 56.6534 19.5658 56.8829 19.8448 57.0479C20.1238 57.2099 20.4493 57.2909 20.8213 57.2909C21.0943 57.2909 21.3313 57.2579 21.5323 57.1919C21.7363 57.1229 21.9043 57.0329 22.0363 56.9219C22.1713 56.8109 22.2733 56.6939 22.3423 56.5709C22.4143 56.4449 22.4563 56.3264 22.4683 56.2154H23.0218C23.0098 56.3924 22.9528 56.5739 22.8508 56.7599C22.7518 56.9429 22.6093 57.1139 22.4233 57.2729C22.2403 57.4319 22.0123 57.5609 21.7393 57.6599C21.4693 57.7559 21.1573 57.8039 20.8033 57.8039C20.3413 57.8039 19.9303 57.6989 19.5703 57.4889C19.2133 57.2789 18.9313 56.9894 18.7243 56.6204C18.5203 56.2484 18.4183 55.8209 18.4183 55.3379C18.4183 54.8519 18.5218 54.4244 18.7288 54.0554C18.9358 53.6834 19.2193 53.3924 19.5793 53.1824C19.9393 52.9724 20.3488 52.8674 20.8078 52.8674C21.2758 52.8674 21.6808 52.9739 22.0228 53.1869C22.3648 53.3999 22.6288 53.6894 22.8148 54.0554C23.0008 54.4184 23.0938 54.8264 23.0938 55.2794C23.0938 55.3184 23.0923 55.3679 23.0893 55.4279C23.0893 55.4879 23.0878 55.5314 23.0848 55.5584H18.7423ZM24.5167 55.5584V55.0589H28.3867L28.2787 55.2119C28.2787 55.1939 28.2787 55.1789 28.2787 55.1669C28.2787 55.1519 28.2787 55.1369 28.2787 55.1219C28.2787 54.8129 28.2127 54.5249 28.0807 54.2579C27.9487 53.9909 27.7567 53.7764 27.5047 53.6144C27.2557 53.4524 26.9512 53.3714 26.5912 53.3714C26.2252 53.3714 25.9027 53.4554 25.6237 53.6234C25.3447 53.7884 25.1272 54.0179 24.9712 54.3119C24.8152 54.6029 24.7372 54.9419 24.7372 55.3289C24.7372 55.7189 24.8137 56.0624 24.9667 56.3594C25.1227 56.6534 25.3402 56.8829 25.6192 57.0479C25.8982 57.2099 26.2237 57.2909 26.5957 57.2909C26.8687 57.2909 27.1057 57.2579 27.3067 57.1919C27.5107 57.1229 27.6787 57.0329 27.8107 56.9219C27.9457 56.8109 28.0477 56.6939 28.1167 56.5709C28.1887 56.4449 28.2307 56.3264 28.2427 56.2154H28.7962C28.7842 56.3924 28.7272 56.5739 28.6252 56.7599C28.5262 56.9429 28.3837 57.1139 28.1977 57.2729C28.0147 57.4319 27.7867 57.5609 27.5137 57.6599C27.2437 57.7559 26.9317 57.8039 26.5777 57.8039C26.1157 57.8039 25.7047 57.6989 25.3447 57.4889C24.9877 57.2789 24.7057 56.9894 24.4987 56.6204C24.2947 56.2484 24.1927 55.8209 24.1927 55.3379C24.1927 54.8519 24.2962 54.4244 24.5032 54.0554C24.7102 53.6834 24.9937 53.3924 25.3537 53.1824C25.7137 52.9724 26.1232 52.8674 26.5822 52.8674C27.0502 52.8674 27.4552 52.9739 27.7972 53.1869C28.1392 53.3999 28.4032 53.6894 28.5892 54.0554C28.7752 54.4184 28.8682 54.8264 28.8682 55.2794C28.8682 55.3184 28.8667 55.3679 28.8637 55.4279C28.8637 55.4879 28.8622 55.5314 28.8592 55.5584H24.5167ZM30.6393 57.7139V53.4254H29.5773V52.9349H30.6393V52.2734C30.6393 52.0934 30.6573 51.9209 30.6933 51.7559C30.7323 51.5909 30.7893 51.4394 30.8643 51.3014C30.9423 51.1604 31.0398 51.0389 31.1568 50.9369C31.2768 50.8349 31.4193 50.7554 31.5843 50.6984C31.7493 50.6414 31.9368 50.6129 32.1468 50.6129C32.2758 50.6129 32.3823 50.6219 32.4663 50.6399C32.5503 50.6549 32.6073 50.6699 32.6373 50.6849V51.1754C32.5983 51.1634 32.5383 51.1499 32.4573 51.1349C32.3763 51.1199 32.2893 51.1124 32.1963 51.1124C31.9833 51.1124 31.8108 51.1484 31.6788 51.2204C31.5468 51.2924 31.4448 51.3884 31.3728 51.5084C31.3038 51.6284 31.2573 51.7634 31.2333 51.9134C31.2093 52.0604 31.1973 52.2104 31.1973 52.3634V52.9349H32.6103V53.4254H31.1973V57.7139H30.6393Z" fill="#797D86"/>
<path d="M17.5871 21.7288C17.5871 21.7288 16.0943 21.6216 15.7117 21.239C15.3292 20.8564 15.3292 20.2361 15.7117 19.8535C16.0943 19.4709 16.7147 19.4709 17.0972 19.8535C17.4798 20.2361 17.5871 21.7288 17.5871 21.7288Z" fill="#FCC436"/>
<mask id="path-4-outside-1_15_1131" maskUnits="userSpaceOnUse" x="9.13391" y="6.96165" width="27" height="16" fill="black">
<rect fill="white" x="9.13391" y="6.96165" width="27" height="16"/>
<path d="M14.3822 19.3657L15.3803 14.8356C15.3803 14.8356 11.618 14.5284 12.1939 11.1884C12.1939 11.1884 17.0695 12.8009 18.4516 11.4188C18.4516 11.4188 21.507 8.15431 26.385 11.3978C28.0126 12.48 32.6428 11.1674 32.6428 11.1674C33.2186 14.5074 29.4563 14.8146 29.4563 14.8146L30.4545 19.3447"/>
</mask>
<path d="M11.729 18.7811C11.4061 20.2464 12.3323 21.696 13.7976 22.0189C15.2629 22.3417 16.7125 21.4156 17.0353 19.9503L11.729 18.7811ZM15.3803 14.8356L18.0335 15.4202C18.2023 14.654 18.0317 13.8523 17.5656 13.2213C17.0994 12.5903 16.3833 12.1916 15.6014 12.1278L15.3803 14.8356ZM12.1939 11.1884L13.0469 8.60902C12.2961 8.36073 11.4744 8.45188 10.7963 8.85867C10.1181 9.26547 9.65091 9.94754 9.51655 10.7268L12.1939 11.1884ZM18.4516 11.4188L20.3727 13.3398C20.3939 13.3187 20.4147 13.2971 20.4351 13.2753L18.4516 11.4188ZM26.385 11.3978L27.8893 9.13542L27.8893 9.1354L26.385 11.3978ZM32.6428 11.1674L35.3201 10.7058C35.1892 9.94668 34.7422 9.2788 34.0903 8.86836C33.4384 8.45792 32.6429 8.34351 31.9018 8.55361L32.6428 11.1674ZM29.4563 14.8146L29.2352 12.1068C28.4533 12.1706 27.7372 12.5693 27.271 13.2003C26.8049 13.8313 26.6343 14.633 26.8031 15.3992L29.4563 14.8146ZM27.8013 19.9293C28.1242 21.3946 29.5737 22.3207 31.0391 21.9979C32.5044 21.675 33.4305 20.2254 33.1076 18.7601L27.8013 19.9293ZM17.0353 19.9503L18.0335 15.4202L12.7272 14.251L11.729 18.7811L17.0353 19.9503ZM15.3803 14.8356C15.6014 12.1278 15.6026 12.1279 15.6037 12.128C15.6041 12.128 15.6052 12.1281 15.606 12.1281C15.6074 12.1283 15.6089 12.1284 15.6102 12.1285C15.613 12.1287 15.6155 12.129 15.6179 12.1292C15.6226 12.1296 15.6265 12.13 15.6297 12.1303C15.636 12.1309 15.6394 12.1312 15.6401 12.1313C15.6413 12.1315 15.632 12.1304 15.614 12.1278C15.5769 12.1224 15.5096 12.111 15.4245 12.091C15.2379 12.047 15.052 11.9813 14.9148 11.9032C14.7824 11.8279 14.7983 11.8011 14.8342 11.867C14.8905 11.9703 14.8181 11.9578 14.8712 11.6501L9.51655 10.7268C9.28167 12.0891 9.46362 13.3675 10.0634 14.4677C10.6428 15.5306 11.4913 16.2069 12.2275 16.6258C12.9589 17.042 13.6776 17.2618 14.1784 17.3798C14.437 17.4407 14.6592 17.4795 14.8256 17.5039C14.9093 17.5162 14.9803 17.525 15.0364 17.5313C15.0644 17.5344 15.0889 17.5369 15.1094 17.5389C15.1197 17.5399 15.129 17.5408 15.1373 17.5415C15.1415 17.5419 15.1454 17.5422 15.1491 17.5425C15.1509 17.5427 15.1527 17.5428 15.1544 17.543C15.1552 17.543 15.1565 17.5431 15.1569 17.5432C15.1581 17.5433 15.1593 17.5434 15.3803 14.8356ZM12.1939 11.1884C11.3408 13.7679 11.3413 13.768 11.3417 13.7682C11.3419 13.7682 11.3424 13.7684 11.3428 13.7685C11.3435 13.7687 11.3443 13.769 11.3452 13.7693C11.3469 13.7699 11.349 13.7705 11.3513 13.7713C11.356 13.7729 11.3619 13.7748 11.369 13.7771C11.3831 13.7817 11.4019 13.7877 11.425 13.7951C11.4714 13.8098 11.5354 13.8299 11.6151 13.8542C11.7743 13.9026 11.9974 13.9681 12.2674 14.0412C12.8017 14.1858 13.5476 14.3676 14.3608 14.5022C15.1525 14.6333 16.123 14.7395 17.0705 14.6767C17.9165 14.6206 19.3145 14.3981 20.3727 13.3398L16.5305 9.49773C16.8977 9.13048 17.1679 9.2247 16.711 9.255C16.3557 9.27856 15.8481 9.24086 15.2481 9.14155C14.6697 9.04581 14.1103 8.91089 13.6871 8.79635C13.4785 8.73988 13.3099 8.69025 13.197 8.65589C13.1407 8.63875 13.0986 8.62554 13.0729 8.61734C13.06 8.61325 13.0512 8.61042 13.0468 8.60898C13.0446 8.60826 13.0435 8.6079 13.0435 8.6079C13.0435 8.6079 13.0438 8.60799 13.0443 8.60818C13.0446 8.60827 13.045 8.60839 13.0454 8.60853C13.0456 8.6086 13.046 8.60872 13.0461 8.60876C13.0465 8.60889 13.0469 8.60902 12.1939 11.1884ZM18.4516 11.4188C20.4351 13.2753 20.434 13.2765 20.4328 13.2778C20.4325 13.2782 20.4313 13.2794 20.4306 13.2802C20.4291 13.2817 20.4276 13.2833 20.4262 13.2848C20.4234 13.2877 20.4208 13.2905 20.4183 13.2932C20.4133 13.2984 20.4089 13.3029 20.4051 13.3068C20.3975 13.3146 20.3923 13.3197 20.3895 13.3225C20.3839 13.328 20.3874 13.3243 20.3997 13.3133C20.4248 13.2909 20.4824 13.242 20.5694 13.1808C20.747 13.0557 21.0189 12.8991 21.3673 12.7949C21.9483 12.6212 23.0975 12.4744 24.8808 13.6601L27.8893 9.1354C24.7946 7.07768 21.9771 6.94133 19.8108 7.58901C18.7856 7.89553 17.9888 8.35234 17.4411 8.73799C17.1655 8.93208 16.9462 9.11287 16.7851 9.25637C16.7043 9.32834 16.6374 9.3916 16.5847 9.44332C16.5583 9.46921 16.5354 9.49228 16.516 9.51219C16.5063 9.52215 16.4974 9.53133 16.4894 9.53968C16.4854 9.54386 16.4817 9.54783 16.4781 9.55159C16.4763 9.55347 16.4746 9.5553 16.4729 9.55708C16.4721 9.55796 16.4709 9.55926 16.4705 9.5597C16.4693 9.56098 16.4681 9.56224 18.4516 11.4188ZM24.8807 13.6601C25.914 14.3472 27.1169 14.4968 27.9301 14.5325C28.8254 14.5719 29.7393 14.4869 30.5054 14.3784C31.2857 14.2678 31.9955 14.1205 32.5053 14.0027C32.7625 13.9433 32.9741 13.8902 33.1249 13.8509C33.2004 13.8313 33.2609 13.8151 33.3046 13.8031C33.3265 13.7972 33.3442 13.7923 33.3574 13.7886C33.3641 13.7868 33.3696 13.7852 33.374 13.784C33.3762 13.7834 33.3781 13.7828 33.3797 13.7824C33.3805 13.7822 33.3813 13.7819 33.3819 13.7818C33.3823 13.7817 33.3827 13.7815 33.3829 13.7815C33.3833 13.7814 33.3837 13.7812 32.6428 11.1674C31.9018 8.55361 31.9022 8.5535 31.9025 8.5534C31.9026 8.55337 31.903 8.55327 31.9032 8.55322C31.9036 8.55311 31.9039 8.55302 31.9041 8.55295C31.9046 8.55281 31.9049 8.55274 31.9048 8.55275C31.9048 8.55277 31.9036 8.55309 31.9014 8.5537C31.8971 8.55491 31.8885 8.55727 31.8761 8.56066C31.8512 8.56745 31.8107 8.57835 31.7564 8.59248C31.6476 8.6208 31.4848 8.66175 31.2824 8.70849C30.8732 8.80301 30.3238 8.91619 29.7431 8.99849C29.1481 9.08279 28.5994 9.12306 28.1687 9.10414C27.6561 9.08161 27.6698 8.98946 27.8893 9.13542L24.8807 13.6601ZM29.9655 11.629C30.0185 11.9367 29.9461 11.9493 30.0024 11.846C30.0384 11.7801 30.0542 11.8069 29.9218 11.8822C29.7847 11.9603 29.5987 12.026 29.4121 12.07C29.327 12.09 29.2597 12.1013 29.2226 12.1068C29.2046 12.1094 29.1953 12.1104 29.1966 12.1103C29.1972 12.1102 29.2006 12.1099 29.2069 12.1092C29.2101 12.1089 29.214 12.1086 29.2187 12.1082C29.2211 12.1079 29.2236 12.1077 29.2264 12.1075C29.2278 12.1074 29.2292 12.1073 29.2307 12.1071C29.2314 12.1071 29.2325 12.107 29.2329 12.1069C29.2341 12.1068 29.2352 12.1068 29.4563 14.8146C29.6773 17.5224 29.6785 17.5223 29.6798 17.5222C29.6802 17.5221 29.6814 17.522 29.6823 17.522C29.684 17.5218 29.6857 17.5217 29.6876 17.5215C29.6912 17.5212 29.6951 17.5209 29.6993 17.5205C29.7076 17.5198 29.7169 17.5189 29.7272 17.5179C29.7477 17.5159 29.7722 17.5134 29.8002 17.5103C29.8563 17.504 29.9273 17.4952 30.011 17.4829C30.1775 17.4585 30.3996 17.4197 30.6582 17.3588C31.1591 17.2408 31.8777 17.021 32.6092 16.6048C33.3453 16.1858 34.1938 15.5096 34.7732 14.4467C35.373 13.3465 35.555 12.0681 35.3201 10.7058L29.9655 11.629ZM26.8031 15.3992L27.8013 19.9293L33.1076 18.7601L32.1095 14.23L26.8031 15.3992Z" fill="#FCC436" mask="url(#path-4-outside-1_15_1131)"/>
<path d="M18.724 29.0475H26.4276C26.5608 29.0475 26.6884 29.1032 26.7745 29.2048C27.1893 29.6943 28.3147 31.3343 27.8004 34.2486C27.7105 34.7583 27.2299 35.1019 26.7209 35.0081C25.0182 34.6943 21.1739 34.1316 18.5114 34.8482C17.9697 34.994 17.4306 34.6258 17.3636 34.0689C17.2157 32.8386 17.209 30.822 18.3483 29.235C18.4341 29.1155 18.577 29.0475 18.724 29.0475Z" fill="#FCC436"/>
<path d="M19.4021 31.1425C19.4021 31.1425 19.0658 32.5411 20.947 32.5758" stroke="white" stroke-width="0.905605" stroke-miterlimit="10" stroke-linecap="round" stroke-linejoin="round"/>
<path d="M19.0399 36.6236C19.0399 36.6236 22.1496 40.5011 25.7967 36.7772" stroke="#FCC436" stroke-width="2.71681" stroke-miterlimit="10" stroke-linecap="round" stroke-linejoin="round"/>
<path d="M13.3528 16.387C11.8518 15.4281 9.73811 14.1399 7.26133 14.7496C7.26133 14.7496 6.53189 21.6216 14.786 22.3511L15.3803 22.7826C15.3803 22.7826 14.2583 27.151 15.9984 30.6701" stroke="#FCC436" stroke-width="2.71681" stroke-miterlimit="10" stroke-linecap="round" stroke-linejoin="round"/>
<path d="M27.2495 21.7065C27.2495 21.7065 28.7423 21.5992 29.1249 21.2167C29.5075 20.8341 29.5075 20.2137 29.1249 19.8312C28.7423 19.4486 28.1219 19.4486 27.7394 19.8312C27.3568 20.2137 27.2495 21.7065 27.2495 21.7065Z" fill="#FCC436"/>
<path d="M25.9243 31.1215C25.9243 31.1215 26.2606 32.5201 24.3794 32.5548" stroke="white" stroke-width="0.905605" stroke-miterlimit="10" stroke-linecap="round" stroke-linejoin="round"/>
<path d="M31.6029 16.291C33.0957 15.3662 35.1633 14.1348 37.5752 14.7286C37.5752 14.7286 38.3046 21.6006 30.0506 22.33L29.4562 22.7616C29.4562 22.7616 30.6996 26.6692 28.9595 30.1884" stroke="#FCC436" stroke-width="2.71681" stroke-miterlimit="10" stroke-linecap="round" stroke-linejoin="round"/>
</svg>
