<svg width="220" height="39" viewBox="0 0 220 39" fill="none" xmlns="http://www.w3.org/2000/svg">
<path d="M65.08 24V12.2H66.816V23.472L66.032 22.528H71.384V24H65.08ZM77.7669 24.16C76.8922 24.16 76.1189 23.9707 75.4469 23.592C74.7802 23.2133 74.2575 22.6933 73.8789 22.032C73.5055 21.3653 73.3189 20.6027 73.3189 19.744C73.3189 18.8907 73.5055 18.136 73.8789 17.48C74.2575 16.8187 74.7802 16.304 75.4469 15.936C76.1189 15.5627 76.8922 15.376 77.7669 15.376C78.6415 15.376 79.4122 15.5627 80.0789 15.936C80.7509 16.304 81.2735 16.8187 81.6469 17.48C82.0255 18.136 82.2149 18.8907 82.2149 19.744C82.2149 20.6027 82.0255 21.3653 81.6469 22.032C81.2735 22.6933 80.7509 23.2133 80.0789 23.592C79.4122 23.9707 78.6415 24.16 77.7669 24.16ZM77.7669 22.672C78.3002 22.672 78.7695 22.552 79.1749 22.312C79.5802 22.072 79.8975 21.7333 80.1269 21.296C80.3562 20.8533 80.4709 20.336 80.4709 19.744C80.4709 19.1573 80.3562 18.648 80.1269 18.216C79.8975 17.784 79.5802 17.4507 79.1749 17.216C78.7695 16.9813 78.3002 16.864 77.7669 16.864C77.2389 16.864 76.7695 16.9813 76.3589 17.216C75.9535 17.4507 75.6362 17.784 75.4069 18.216C75.1775 18.648 75.0629 19.1573 75.0629 19.744C75.0629 20.336 75.1775 20.8533 75.4069 21.296C75.6362 21.7333 75.9535 22.072 76.3589 22.312C76.7695 22.552 77.2389 22.672 77.7669 22.672ZM90.2032 23.32C90.6832 23.3627 91.1046 23.4533 91.4672 23.592C91.8299 23.7253 92.1126 23.9227 92.3152 24.184C92.5232 24.4507 92.6272 24.8 92.6272 25.232C92.6272 25.7173 92.4619 26.1387 92.1312 26.496C91.8059 26.8587 91.3179 27.1387 90.6672 27.336C90.0166 27.5387 89.2086 27.64 88.2432 27.64C86.8619 27.64 85.8086 27.44 85.0832 27.04C84.3579 26.64 83.9952 26.096 83.9952 25.408C83.9952 25.2 84.0192 25.016 84.0672 24.856C84.1152 24.696 84.1739 24.5627 84.2432 24.456L85.8592 24.696C85.8219 24.7493 85.7846 24.8267 85.7472 24.928C85.7099 25.0347 85.6912 25.1627 85.6912 25.312C85.6912 25.6907 85.9232 25.96 86.3872 26.12C86.8512 26.28 87.4939 26.36 88.3152 26.36C88.9179 26.36 89.4166 26.3173 89.8112 26.232C90.2112 26.152 90.5099 26.0347 90.7072 25.88C90.9046 25.7253 91.0032 25.544 91.0032 25.336C91.0032 25.0213 90.8672 24.824 90.5952 24.744C90.3232 24.664 89.9952 24.608 89.6112 24.576L86.3872 24.312C85.8272 24.264 85.3686 24.096 85.0112 23.808C84.6592 23.52 84.4832 23.1573 84.4832 22.72C84.4832 22.448 84.5526 22.1947 84.6912 21.96C84.8299 21.7253 84.9899 21.528 85.1712 21.368C85.3579 21.208 85.5179 21.1093 85.6512 21.072L86.7872 21.616C86.6646 21.632 86.5152 21.7147 86.3392 21.864C86.1686 22.008 86.0832 22.1787 86.0832 22.376C86.0832 22.5573 86.1579 22.7067 86.3072 22.824C86.4619 22.9413 86.7606 23.0187 87.2032 23.056L90.2032 23.32ZM91.2672 15.504H92.8432L92.1952 18.824C92.0779 19.4427 91.8619 20.0027 91.5472 20.504C91.2379 21 90.8166 21.392 90.2832 21.68C89.7552 21.968 89.0966 22.112 88.3072 22.112C87.4859 22.112 86.7792 21.9707 86.1872 21.688C85.5952 21.4053 85.1392 21.0133 84.8192 20.512C84.5046 20.0053 84.3472 19.4293 84.3472 18.784C84.3472 18.128 84.5099 17.5413 84.8352 17.024C85.1659 16.5067 85.6192 16.1013 86.1952 15.808C86.7766 15.5147 87.4406 15.368 88.1872 15.368C88.8166 15.368 89.3739 15.4747 89.8592 15.688C90.3499 15.9013 90.7392 16.1733 91.0272 16.504C91.3152 16.8347 91.4726 17.1787 91.4992 17.536L91.0032 17.592L91.2672 15.504ZM88.2992 20.696C88.7632 20.696 89.1632 20.6213 89.4992 20.472C89.8352 20.3173 90.0939 20.096 90.2752 19.808C90.4566 19.5147 90.5472 19.1627 90.5472 18.752C90.5472 18.3467 90.4566 18 90.2752 17.712C90.0939 17.4187 89.8352 17.1947 89.4992 17.04C89.1632 16.88 88.7659 16.8 88.3072 16.8C87.8646 16.8 87.4726 16.8827 87.1312 17.048C86.7952 17.208 86.5312 17.4347 86.3392 17.728C86.1472 18.0213 86.0512 18.3707 86.0512 18.776C86.0512 19.1813 86.1419 19.528 86.3232 19.816C86.5046 20.0987 86.7632 20.3173 87.0992 20.472C87.4352 20.6213 87.8352 20.696 88.2992 20.696ZM98.6956 24.16C97.821 24.16 97.0476 23.9707 96.3756 23.592C95.709 23.2133 95.1863 22.6933 94.8076 22.032C94.4343 21.3653 94.2476 20.6027 94.2476 19.744C94.2476 18.8907 94.4343 18.136 94.8076 17.48C95.1863 16.8187 95.709 16.304 96.3756 15.936C97.0476 15.5627 97.821 15.376 98.6956 15.376C99.5703 15.376 100.341 15.5627 101.008 15.936C101.68 16.304 102.202 16.8187 102.576 17.48C102.954 18.136 103.144 18.8907 103.144 19.744C103.144 20.6027 102.954 21.3653 102.576 22.032C102.202 22.6933 101.68 23.2133 101.008 23.592C100.341 23.9707 99.5703 24.16 98.6956 24.16ZM98.6956 22.672C99.229 22.672 99.6983 22.552 100.104 22.312C100.509 22.072 100.826 21.7333 101.056 21.296C101.285 20.8533 101.4 20.336 101.4 19.744C101.4 19.1573 101.285 18.648 101.056 18.216C100.826 17.784 100.509 17.4507 100.104 17.216C99.6983 16.9813 99.229 16.864 98.6956 16.864C98.1676 16.864 97.6983 16.9813 97.2876 17.216C96.8823 17.4507 96.565 17.784 96.3356 18.216C96.1063 18.648 95.9916 19.1573 95.9916 19.744C95.9916 20.336 96.1063 20.8533 96.3356 21.296C96.565 21.7333 96.8823 22.072 97.2876 22.312C97.6983 22.552 98.1676 22.672 98.6956 22.672ZM108.652 24.152C108.049 24.152 107.548 24.0507 107.148 23.848C106.748 23.64 106.431 23.3707 106.196 23.04C105.961 22.704 105.796 22.3387 105.7 21.944C105.604 21.544 105.556 21.1547 105.556 20.776C105.556 20.5787 105.556 20.3733 105.556 20.16C105.556 19.9413 105.556 19.7227 105.556 19.504V15.504H107.3V19.256C107.3 19.448 107.3 19.6373 107.3 19.824C107.3 20.0053 107.3 20.176 107.3 20.336C107.3 20.7467 107.353 21.1253 107.46 21.472C107.567 21.8133 107.753 22.0907 108.02 22.304C108.292 22.512 108.671 22.616 109.156 22.616C109.609 22.616 110.004 22.4827 110.34 22.216C110.676 21.944 110.937 21.6027 111.124 21.192C111.311 20.776 111.404 20.36 111.404 19.944L112.164 20.352C112.164 20.8427 112.081 21.3147 111.916 21.768C111.756 22.2213 111.524 22.6293 111.22 22.992C110.916 23.3493 110.545 23.632 110.108 23.84C109.676 24.048 109.191 24.152 108.652 24.152ZM111.404 24V15.504H113.14V24H111.404ZM119.449 24.144C119.167 24.144 118.884 24.1147 118.601 24.056C118.324 23.9973 118.068 23.8907 117.833 23.736C117.604 23.576 117.42 23.3493 117.281 23.056C117.143 22.7627 117.073 22.3787 117.073 21.904C117.073 21.792 117.073 21.6747 117.073 21.552C117.073 21.4293 117.073 21.304 117.073 21.176V16.944H115.033V15.504H116.105C116.335 15.504 116.513 15.496 116.641 15.48C116.775 15.4587 116.871 15.4133 116.929 15.344C116.993 15.2693 117.033 15.152 117.049 14.992C117.065 14.832 117.073 14.6133 117.073 14.336V12.696H118.809V15.504H121.409V16.944H118.809V20.712C118.809 20.8187 118.809 20.9253 118.809 21.032C118.809 21.1387 118.809 21.2373 118.809 21.328C118.809 21.7547 118.86 22.0907 118.961 22.336C119.068 22.5813 119.308 22.704 119.681 22.704C119.841 22.704 119.993 22.6907 120.137 22.664C120.281 22.6373 120.391 22.608 120.465 22.576V23.992C120.369 24.0293 120.233 24.064 120.057 24.096C119.881 24.128 119.679 24.144 119.449 24.144Z" fill="#797D86"/>
<rect x="0.773842" y="0.773842" width="37.1444" height="37.1444" rx="18.5722" stroke="#FCC436" stroke-width="1.54768"/>
<path d="M25.1856 14.3162L23.6642 15.8376L26.4481 18.6323H15.4742V20.7904H26.4481L23.6642 23.5743L25.1856 25.1066L30.5808 19.7114L25.1856 14.3162ZM11.1581 12.1581H19.7904V10H11.1581C9.97114 10 9 10.9711 9 12.1581V27.2647C9 28.4516 9.97114 29.4227 11.1581 29.4227H19.7904V27.2647H11.1581V12.1581Z" fill="#FCC436" stroke="#FCC436" stroke-width="1.20144" stroke-linejoin="round"/>
</svg>
