<svg width="218" height="39" viewBox="0 0 218 39" fill="none" xmlns="http://www.w3.org/2000/svg">
<path d="M63.08 24V12.2H66.32C67.104 12.2 67.8133 12.3387 68.448 12.616C69.0827 12.8933 69.624 13.288 70.072 13.8C70.5253 14.312 70.8747 14.9307 71.12 15.656C71.3653 16.3813 71.488 17.192 71.488 18.088C71.488 18.9893 71.3653 19.8027 71.12 20.528C70.8747 21.2533 70.5253 21.8747 70.072 22.392C69.624 22.9093 69.0827 23.3067 68.448 23.584C67.8133 23.8613 67.104 24 66.32 24H63.08ZM64.824 23.472L64.04 22.56H66.112C66.8053 22.56 67.424 22.3787 67.968 22.016C68.5173 21.6533 68.9467 21.1387 69.256 20.472C69.5653 19.8 69.72 19.0053 69.72 18.088C69.72 17.1653 69.5653 16.3733 69.256 15.712C68.9467 15.0453 68.5173 14.5333 67.968 14.176C67.424 13.8187 66.8053 13.64 66.112 13.64H64.04L64.824 12.728V23.472ZM77.97 24.16C77.0953 24.16 76.322 23.9707 75.65 23.592C74.9833 23.2133 74.4607 22.6933 74.082 22.032C73.7087 21.3653 73.522 20.6027 73.522 19.744C73.522 18.8907 73.7087 18.136 74.082 17.48C74.4607 16.8187 74.9833 16.304 75.65 15.936C76.322 15.5627 77.0953 15.376 77.97 15.376C78.8447 15.376 79.6153 15.5627 80.282 15.936C80.954 16.304 81.4767 16.8187 81.85 17.48C82.2287 18.136 82.418 18.8907 82.418 19.744C82.418 20.6027 82.2287 21.3653 81.85 22.032C81.4767 22.6933 80.954 23.2133 80.282 23.592C79.6153 23.9707 78.8447 24.16 77.97 24.16ZM77.97 22.672C78.5033 22.672 78.9727 22.552 79.378 22.312C79.7833 22.072 80.1007 21.7333 80.33 21.296C80.5593 20.8533 80.674 20.336 80.674 19.744C80.674 19.1573 80.5593 18.648 80.33 18.216C80.1007 17.784 79.7833 17.4507 79.378 17.216C78.9727 16.9813 78.5033 16.864 77.97 16.864C77.442 16.864 76.9727 16.9813 76.562 17.216C76.1567 17.4507 75.8393 17.784 75.61 18.216C75.3807 18.648 75.266 19.1573 75.266 19.744C75.266 20.336 75.3807 20.8533 75.61 21.296C75.8393 21.7333 76.1567 22.072 76.562 22.312C76.9727 22.552 77.442 22.672 77.97 22.672ZM90.8784 24V20.08C90.8784 19.8507 90.8784 19.656 90.8784 19.496C90.8784 19.336 90.8784 19.1867 90.8784 19.048C90.8784 18.632 90.8144 18.2667 90.6864 17.952C90.5584 17.632 90.3477 17.384 90.0544 17.208C89.761 17.0267 89.369 16.936 88.8784 16.936C88.4464 16.936 88.0544 17.0427 87.7024 17.256C87.3557 17.4693 87.0784 17.76 86.8704 18.128C86.6677 18.4907 86.5664 18.904 86.5664 19.368L85.8224 19C85.8224 18.312 85.985 17.696 86.3104 17.152C86.6357 16.6027 87.0704 16.168 87.6144 15.848C88.1637 15.528 88.7637 15.368 89.4144 15.368C90.0864 15.368 90.6597 15.4987 91.1344 15.76C91.6144 16.016 91.9797 16.384 92.2304 16.864C92.4864 17.3387 92.6144 17.9067 92.6144 18.568C92.6144 18.8133 92.6144 19.0853 92.6144 19.384C92.6144 19.6827 92.6144 19.9707 92.6144 20.248V24H90.8784ZM84.8304 24V15.504H86.5664V24H84.8304ZM95.8951 20.36V19.008H102.151L101.911 19.408C101.911 19.376 101.911 19.344 101.911 19.312C101.911 19.2747 101.911 19.2427 101.911 19.216C101.911 18.784 101.818 18.3867 101.631 18.024C101.444 17.656 101.164 17.3627 100.791 17.144C100.423 16.92 99.9618 16.808 99.4071 16.808C98.8525 16.808 98.3645 16.928 97.9431 17.168C97.5271 17.4027 97.2018 17.7387 96.9671 18.176C96.7378 18.608 96.6231 19.128 96.6231 19.736C96.6231 20.3547 96.7351 20.888 96.9591 21.336C97.1831 21.7787 97.5058 22.12 97.9271 22.36C98.3485 22.6 98.8525 22.72 99.4391 22.72C99.8498 22.72 100.204 22.68 100.503 22.6C100.807 22.5147 101.055 22.4027 101.247 22.264C101.444 22.1253 101.594 21.976 101.695 21.816C101.796 21.6507 101.855 21.488 101.871 21.328H103.599C103.567 21.6747 103.452 22.0187 103.255 22.36C103.063 22.696 102.788 23.0027 102.431 23.28C102.079 23.552 101.647 23.7707 101.135 23.936C100.628 24.096 100.044 24.176 99.3831 24.176C98.4978 24.176 97.7218 23.9893 97.0551 23.616C96.3885 23.2427 95.8685 22.7253 95.4951 22.064C95.1218 21.3973 94.9351 20.6347 94.9351 19.776C94.9351 18.9013 95.1245 18.1333 95.5031 17.472C95.8818 16.8107 96.4071 16.296 97.0791 15.928C97.7511 15.5547 98.5218 15.368 99.3911 15.368C100.276 15.368 101.042 15.5547 101.687 15.928C102.338 16.3013 102.839 16.816 103.191 17.472C103.543 18.128 103.719 18.8827 103.719 19.736C103.719 19.8373 103.716 19.9547 103.711 20.088C103.706 20.2213 103.698 20.312 103.687 20.36H95.8951ZM110.558 24V12.2H114.878C116.014 12.2 116.873 12.464 117.454 12.992C118.035 13.52 118.326 14.312 118.326 15.368C118.326 15.9867 118.206 16.5147 117.966 16.952C117.731 17.3893 117.446 17.728 117.11 17.968C116.779 18.2027 116.467 18.336 116.174 18.368C116.473 18.3893 116.763 18.4693 117.046 18.608C117.329 18.7467 117.563 18.96 117.75 19.248C117.937 19.536 118.03 19.9253 118.03 20.416C118.03 20.832 118.03 21.2533 118.03 21.68C118.03 22.1067 118.03 22.5307 118.03 22.952C118.03 23.192 118.049 23.4107 118.086 23.608C118.129 23.8 118.179 23.9307 118.238 24H116.486C116.438 23.92 116.395 23.7867 116.358 23.6C116.321 23.4133 116.302 23.1973 116.302 22.952C116.302 22.568 116.302 22.1813 116.302 21.792C116.302 21.4027 116.302 21.0133 116.302 20.624C116.302 20.1173 116.15 19.7387 115.846 19.488C115.547 19.232 115.11 19.104 114.534 19.104H111.782L112.254 18.488V24H110.558ZM112.254 18.344L111.782 17.664H114.55C114.923 17.664 115.259 17.576 115.558 17.4C115.857 17.2187 116.094 16.968 116.27 16.648C116.451 16.3227 116.542 15.944 116.542 15.512C116.542 14.8613 116.363 14.3867 116.006 14.088C115.649 13.7893 115.137 13.64 114.47 13.64H111.742L112.254 12.976V18.344ZM121.413 20.36V19.008H127.669L127.429 19.408C127.429 19.376 127.429 19.344 127.429 19.312C127.429 19.2747 127.429 19.2427 127.429 19.216C127.429 18.784 127.336 18.3867 127.149 18.024C126.963 17.656 126.683 17.3627 126.309 17.144C125.941 16.92 125.48 16.808 124.925 16.808C124.371 16.808 123.883 16.928 123.461 17.168C123.045 17.4027 122.72 17.7387 122.485 18.176C122.256 18.608 122.141 19.128 122.141 19.736C122.141 20.3547 122.253 20.888 122.477 21.336C122.701 21.7787 123.024 22.12 123.445 22.36C123.867 22.6 124.371 22.72 124.957 22.72C125.368 22.72 125.723 22.68 126.021 22.6C126.325 22.5147 126.573 22.4027 126.765 22.264C126.963 22.1253 127.112 21.976 127.213 21.816C127.315 21.6507 127.373 21.488 127.389 21.328H129.117C129.085 21.6747 128.971 22.0187 128.773 22.36C128.581 22.696 128.307 23.0027 127.949 23.28C127.597 23.552 127.165 23.7707 126.653 23.936C126.147 24.096 125.563 24.176 124.901 24.176C124.016 24.176 123.24 23.9893 122.573 23.616C121.907 23.2427 121.387 22.7253 121.013 22.064C120.64 21.3973 120.453 20.6347 120.453 19.776C120.453 18.9013 120.643 18.1333 121.021 17.472C121.4 16.8107 121.925 16.296 122.597 15.928C123.269 15.5547 124.04 15.368 124.909 15.368C125.795 15.368 126.56 15.5547 127.205 15.928C127.856 16.3013 128.357 16.816 128.709 17.472C129.061 18.128 129.237 18.8827 129.237 19.736C129.237 19.8373 129.235 19.9547 129.229 20.088C129.224 20.2213 129.216 20.312 129.205 20.36H121.413ZM135.772 24.168C134.919 24.168 134.154 23.9893 133.476 23.632C132.804 23.2693 132.274 22.7547 131.884 22.088C131.5 21.4213 131.308 20.6373 131.308 19.736C131.308 18.8347 131.5 18.0587 131.884 17.408C132.274 16.752 132.804 16.248 133.476 15.896C134.154 15.544 134.919 15.368 135.772 15.368C136.418 15.368 136.991 15.4667 137.492 15.664C137.994 15.856 138.418 16.112 138.764 16.432C139.111 16.752 139.375 17.104 139.556 17.488C139.738 17.872 139.828 18.256 139.828 18.64C139.828 18.6453 139.828 18.6533 139.828 18.664C139.828 18.6747 139.828 18.6853 139.828 18.696H138.108C138.108 18.6693 138.106 18.64 138.1 18.608C138.095 18.5707 138.09 18.536 138.084 18.504C138.042 18.1893 137.919 17.9093 137.716 17.664C137.514 17.4187 137.247 17.224 136.916 17.08C136.586 16.936 136.199 16.864 135.756 16.864C135.271 16.864 134.823 16.9707 134.412 17.184C134.007 17.392 133.682 17.7093 133.436 18.136C133.191 18.5627 133.068 19.096 133.068 19.736C133.068 20.376 133.188 20.9147 133.428 21.352C133.674 21.784 133.999 22.112 134.404 22.336C134.815 22.56 135.266 22.672 135.756 22.672C136.284 22.672 136.716 22.592 137.052 22.432C137.388 22.2667 137.642 22.048 137.812 21.776C137.983 21.4987 138.082 21.2 138.108 20.88H139.828C139.828 21.264 139.74 21.6533 139.564 22.048C139.388 22.4373 139.13 22.792 138.788 23.112C138.447 23.432 138.023 23.688 137.516 23.88C137.015 24.072 136.434 24.168 135.772 24.168ZM142.25 24V15.504H143.962V24H142.25ZM143.114 13.744C142.815 13.744 142.557 13.664 142.338 13.504C142.125 13.3387 142.018 13.112 142.018 12.824C142.018 12.5413 142.125 12.32 142.338 12.16C142.557 11.9947 142.815 11.912 143.114 11.912C143.407 11.912 143.661 11.9947 143.874 12.16C144.093 12.32 144.202 12.5413 144.202 12.824C144.202 13.112 144.093 13.3387 143.874 13.504C143.661 13.664 143.407 13.744 143.114 13.744ZM146.753 27.496V15.504H148.489V27.496H146.753ZM151.225 24.168C150.564 24.168 149.95 24.0027 149.385 23.672C148.82 23.336 148.361 22.8773 148.009 22.296C147.662 21.7147 147.489 21.056 147.489 20.32C147.489 20.2987 147.489 20.2827 147.489 20.272C147.489 20.256 147.489 20.24 147.489 20.224L148.497 20.2C148.497 20.2107 148.497 20.224 148.497 20.24C148.497 20.2507 148.497 20.264 148.497 20.28C148.497 20.7173 148.609 21.112 148.833 21.464C149.062 21.8107 149.358 22.0853 149.721 22.288C150.084 22.4907 150.473 22.592 150.889 22.592C151.572 22.592 152.145 22.36 152.609 21.896C153.078 21.4267 153.313 20.7067 153.313 19.736C153.313 18.76 153.081 18.0427 152.617 17.584C152.153 17.12 151.577 16.888 150.889 16.888C150.473 16.888 150.084 16.9893 149.721 17.192C149.358 17.3893 149.062 17.6613 148.833 18.008C148.609 18.3493 148.497 18.7413 148.497 19.184L147.489 19.144C147.489 18.4027 147.662 17.7493 148.009 17.184C148.361 16.6133 148.82 16.168 149.385 15.848C149.95 15.528 150.564 15.368 151.225 15.368C151.913 15.368 152.55 15.5387 153.137 15.88C153.724 16.216 154.196 16.7093 154.553 17.36C154.916 18.0107 155.097 18.8027 155.097 19.736C155.097 20.6907 154.921 21.4987 154.569 22.16C154.217 22.8213 153.748 23.3227 153.161 23.664C152.574 24 151.929 24.168 151.225 24.168ZM158.115 20.36V19.008H164.371L164.131 19.408C164.131 19.376 164.131 19.344 164.131 19.312C164.131 19.2747 164.131 19.2427 164.131 19.216C164.131 18.784 164.037 18.3867 163.851 18.024C163.664 17.656 163.384 17.3627 163.011 17.144C162.643 16.92 162.181 16.808 161.627 16.808C161.072 16.808 160.584 16.928 160.163 17.168C159.747 17.4027 159.421 17.7387 159.187 18.176C158.957 18.608 158.843 19.128 158.843 19.736C158.843 20.3547 158.955 20.888 159.179 21.336C159.403 21.7787 159.725 22.12 160.147 22.36C160.568 22.6 161.072 22.72 161.659 22.72C162.069 22.72 162.424 22.68 162.723 22.6C163.027 22.5147 163.275 22.4027 163.467 22.264C163.664 22.1253 163.813 21.976 163.915 21.816C164.016 21.6507 164.075 21.488 164.091 21.328H165.819C165.787 21.6747 165.672 22.0187 165.475 22.36C165.283 22.696 165.008 23.0027 164.651 23.28C164.299 23.552 163.867 23.7707 163.355 23.936C162.848 24.096 162.264 24.176 161.603 24.176C160.717 24.176 159.941 23.9893 159.275 23.616C158.608 23.2427 158.088 22.7253 157.715 22.064C157.341 21.3973 157.155 20.6347 157.155 19.776C157.155 18.9013 157.344 18.1333 157.723 17.472C158.101 16.8107 158.627 16.296 159.299 15.928C159.971 15.5547 160.741 15.368 161.611 15.368C162.496 15.368 163.261 15.5547 163.907 15.928C164.557 16.3013 165.059 16.816 165.411 17.472C165.763 18.128 165.939 18.8827 165.939 19.736C165.939 19.8373 165.936 19.9547 165.931 20.088C165.925 20.2213 165.917 20.312 165.907 20.36H158.115ZM171.697 24.168C171.191 24.168 170.713 24.112 170.265 24C169.817 23.888 169.423 23.7253 169.081 23.512C168.745 23.2933 168.481 23.024 168.289 22.704C168.103 22.384 168.009 22.0133 168.009 21.592C168.009 21.5547 168.009 21.5173 168.009 21.48C168.009 21.4373 168.009 21.4027 168.009 21.376H169.737C169.737 21.4027 169.737 21.4267 169.737 21.448C169.737 21.4693 169.737 21.4987 169.737 21.536C169.737 21.9253 169.916 22.2213 170.273 22.424C170.636 22.6213 171.127 22.72 171.745 22.72C172.108 22.72 172.439 22.6827 172.737 22.608C173.041 22.5333 173.281 22.4187 173.457 22.264C173.639 22.1093 173.729 21.912 173.729 21.672C173.729 21.2827 173.537 21.0053 173.153 20.84C172.775 20.6747 172.199 20.528 171.425 20.4C171.004 20.3253 170.596 20.2293 170.201 20.112C169.812 19.9947 169.46 19.84 169.145 19.648C168.836 19.4507 168.588 19.208 168.401 18.92C168.22 18.6267 168.129 18.2747 168.129 17.864C168.129 17.3307 168.289 16.8773 168.609 16.504C168.929 16.1307 169.361 15.848 169.905 15.656C170.449 15.464 171.049 15.368 171.705 15.368C172.34 15.368 172.927 15.472 173.465 15.68C174.009 15.8827 174.447 16.1787 174.777 16.568C175.108 16.952 175.273 17.424 175.273 17.984C175.273 18.0053 175.273 18.0293 175.273 18.056C175.273 18.0827 175.273 18.1067 175.273 18.128H173.553C173.553 18.1067 173.553 18.088 173.553 18.072C173.553 18.056 173.553 18.0373 173.553 18.016C173.553 17.7387 173.465 17.512 173.289 17.336C173.113 17.16 172.884 17.0293 172.601 16.944C172.324 16.8533 172.028 16.808 171.713 16.808C171.425 16.808 171.135 16.84 170.841 16.904C170.553 16.9627 170.313 17.0667 170.121 17.216C169.929 17.36 169.833 17.5573 169.833 17.808C169.833 18.064 169.927 18.2693 170.113 18.424C170.3 18.5733 170.564 18.6987 170.905 18.8C171.247 18.896 171.644 18.984 172.097 19.064C172.513 19.1387 172.919 19.2347 173.313 19.352C173.708 19.464 174.063 19.6133 174.377 19.8C174.697 19.9867 174.951 20.2267 175.137 20.52C175.329 20.8133 175.425 21.1733 175.425 21.6C175.425 22.0427 175.324 22.424 175.121 22.744C174.919 23.064 174.641 23.3307 174.289 23.544C173.943 23.752 173.545 23.9067 173.097 24.008C172.655 24.1147 172.188 24.168 171.697 24.168Z" fill="#797D86"/>
<rect x="1.33732" y="0.773842" width="37.1444" height="37.1444" rx="18.5722" stroke="#FCC436" stroke-width="1.54768"/>
<path d="M40.1708 8.53861L40.1711 8.53827C41.2622 7.44721 41.2622 5.70037 40.1711 4.60931L39.464 5.31642L40.1711 4.60931C39.0801 3.51825 37.3332 3.51825 36.2422 4.60931L36.9493 5.31642L36.2422 4.60931L19.1664 21.6851L13.5866 16.1053C12.4956 15.0142 10.7487 15.0142 9.65765 16.1053C8.56659 17.1964 8.56659 18.9432 9.65765 20.0343L17.1839 27.5606C18.275 28.6516 20.0398 28.6516 21.1309 27.5606L40.1708 8.53861Z" fill="#FCC436" stroke="#FCC436" stroke-width="2"/>
</svg>
