<svg width="217" height="39" viewBox="0 0 217 39" fill="none" xmlns="http://www.w3.org/2000/svg">
<path d="M63.024 13.64L63.808 12.728V17.976L63.264 17.48H68.056V18.92H63.264L63.808 18.392V24H62.08V12.2H68.768V13.64H63.024ZM73.3881 24.168C72.7481 24.168 72.1855 24.0667 71.7001 23.864C71.2201 23.6613 70.8468 23.3707 70.5801 22.992C70.3135 22.6133 70.1801 22.1573 70.1801 21.624C70.1801 21.0533 70.3295 20.5813 70.6281 20.208C70.9321 19.8347 71.3481 19.5467 71.8761 19.344C72.4095 19.136 73.0148 19 73.6921 18.936C74.7001 18.8347 75.4095 18.736 75.8201 18.64C76.2361 18.544 76.4441 18.3867 76.4441 18.168C76.4441 18.1627 76.4441 18.1573 76.4441 18.152C76.4441 17.72 76.2601 17.392 75.8921 17.168C75.5241 16.944 74.9988 16.832 74.3161 16.832C73.5961 16.832 73.0388 16.96 72.6441 17.216C72.2548 17.4667 72.0601 17.8667 72.0601 18.416H70.3561C70.3561 17.7653 70.5241 17.2133 70.8601 16.76C71.2015 16.3067 71.6708 15.9627 72.2681 15.728C72.8655 15.488 73.5508 15.368 74.3241 15.368C75.0335 15.368 75.6788 15.4773 76.2601 15.696C76.8468 15.9093 77.3135 16.2293 77.6601 16.656C78.0068 17.0827 78.1801 17.6133 78.1801 18.248C78.1801 18.36 78.1801 18.472 78.1801 18.584C78.1801 18.6907 78.1801 18.8 78.1801 18.912V22.304C78.1801 22.5013 78.1881 22.6933 78.2041 22.88C78.2201 23.0613 78.2495 23.224 78.2921 23.368C78.3401 23.5333 78.3961 23.6693 78.4601 23.776C78.5295 23.8827 78.5855 23.9573 78.6281 24H76.9001C76.8681 23.968 76.8201 23.9013 76.7561 23.8C76.6975 23.6933 76.6441 23.5707 76.5961 23.432C76.5481 23.2987 76.5108 23.1467 76.4841 22.976C76.4628 22.8 76.4521 22.6107 76.4521 22.408L76.7721 22.632C76.6121 22.9413 76.3695 23.2107 76.0441 23.44C75.7241 23.6693 75.3375 23.848 74.8841 23.976C74.4361 24.104 73.9375 24.168 73.3881 24.168ZM73.7481 22.728C74.2441 22.728 74.6948 22.6507 75.1001 22.496C75.5108 22.336 75.8388 22.096 76.0841 21.776C76.3295 21.4507 76.4521 21.0427 76.4521 20.552V19.144L76.8601 19.68C76.5188 19.8133 76.1001 19.9227 75.6041 20.008C75.1135 20.088 74.6068 20.1547 74.0841 20.208C73.3641 20.272 72.8228 20.3973 72.4601 20.584C72.0975 20.7653 71.9161 21.0693 71.9161 21.496C71.9161 21.9067 72.0655 22.216 72.3641 22.424C72.6681 22.6267 73.1295 22.728 73.7481 22.728ZM87.3802 15.504L84.6282 24H82.3242L79.5002 15.504H81.2922L83.6122 23.272H83.3402L85.5882 15.504H87.3802ZM93.055 24.16C92.1803 24.16 91.407 23.9707 90.735 23.592C90.0683 23.2133 89.5457 22.6933 89.167 22.032C88.7937 21.3653 88.607 20.6027 88.607 19.744C88.607 18.8907 88.7937 18.136 89.167 17.48C89.5457 16.8187 90.0683 16.304 90.735 15.936C91.407 15.5627 92.1803 15.376 93.055 15.376C93.9297 15.376 94.7003 15.5627 95.367 15.936C96.039 16.304 96.5617 16.8187 96.935 17.48C97.3137 18.136 97.503 18.8907 97.503 19.744C97.503 20.6027 97.3137 21.3653 96.935 22.032C96.5617 22.6933 96.039 23.2133 95.367 23.592C94.7003 23.9707 93.9297 24.16 93.055 24.16ZM93.055 22.672C93.5883 22.672 94.0577 22.552 94.463 22.312C94.8683 22.072 95.1857 21.7333 95.415 21.296C95.6443 20.8533 95.759 20.336 95.759 19.744C95.759 19.1573 95.6443 18.648 95.415 18.216C95.1857 17.784 94.8683 17.4507 94.463 17.216C94.0577 16.9813 93.5883 16.864 93.055 16.864C92.527 16.864 92.0577 16.9813 91.647 17.216C91.2417 17.4507 90.9243 17.784 90.695 18.216C90.4657 18.648 90.351 19.1573 90.351 19.744C90.351 20.336 90.4657 20.8533 90.695 21.296C90.9243 21.7333 91.2417 22.072 91.647 22.312C92.0577 22.552 92.527 22.672 93.055 22.672ZM99.9154 24V15.504H101.651V18.216L101.187 18.008C101.225 17.6613 101.313 17.3307 101.451 17.016C101.59 16.7013 101.774 16.4213 102.003 16.176C102.238 15.9253 102.526 15.728 102.867 15.584C103.209 15.44 103.603 15.368 104.051 15.368C104.393 15.368 104.667 15.3947 104.875 15.448C105.089 15.5013 105.219 15.544 105.267 15.576L104.899 17.208C104.846 17.1707 104.737 17.1227 104.571 17.064C104.411 17.0053 104.187 16.976 103.899 16.976C103.462 16.976 103.099 17.0533 102.811 17.208C102.523 17.3627 102.294 17.568 102.123 17.824C101.953 18.08 101.83 18.36 101.755 18.664C101.686 18.9627 101.651 19.264 101.651 19.568V24H99.9154ZM107.169 24V15.504H108.881V24H107.169ZM108.033 13.744C107.735 13.744 107.476 13.664 107.257 13.504C107.044 13.3387 106.937 13.112 106.937 12.824C106.937 12.5413 107.044 12.32 107.257 12.16C107.476 11.9947 107.735 11.912 108.033 11.912C108.327 11.912 108.58 11.9947 108.793 12.16C109.012 12.32 109.121 12.5413 109.121 12.824C109.121 13.112 109.012 13.3387 108.793 13.504C108.58 13.664 108.327 13.744 108.033 13.744ZM115.304 24.144C115.022 24.144 114.739 24.1147 114.456 24.056C114.179 23.9973 113.923 23.8907 113.688 23.736C113.459 23.576 113.275 23.3493 113.136 23.056C112.998 22.7627 112.928 22.3787 112.928 21.904C112.928 21.792 112.928 21.6747 112.928 21.552C112.928 21.4293 112.928 21.304 112.928 21.176V16.944H110.888V15.504H111.96C112.19 15.504 112.368 15.496 112.496 15.48C112.63 15.4587 112.726 15.4133 112.784 15.344C112.848 15.2693 112.888 15.152 112.904 14.992C112.92 14.832 112.928 14.6133 112.928 14.336V12.696H114.664V15.504H117.264V16.944H114.664V20.712C114.664 20.8187 114.664 20.9253 114.664 21.032C114.664 21.1387 114.664 21.2373 114.664 21.328C114.664 21.7547 114.715 22.0907 114.816 22.336C114.923 22.5813 115.163 22.704 115.536 22.704C115.696 22.704 115.848 22.6907 115.992 22.664C116.136 22.6373 116.246 22.608 116.32 22.576V23.992C116.224 24.0293 116.088 24.064 115.912 24.096C115.736 24.128 115.534 24.144 115.304 24.144ZM119.768 20.36V19.008H126.024L125.784 19.408C125.784 19.376 125.784 19.344 125.784 19.312C125.784 19.2747 125.784 19.2427 125.784 19.216C125.784 18.784 125.691 18.3867 125.504 18.024C125.318 17.656 125.038 17.3627 124.664 17.144C124.296 16.92 123.835 16.808 123.28 16.808C122.726 16.808 122.238 16.928 121.816 17.168C121.4 17.4027 121.075 17.7387 120.84 18.176C120.611 18.608 120.496 19.128 120.496 19.736C120.496 20.3547 120.608 20.888 120.832 21.336C121.056 21.7787 121.379 22.12 121.8 22.36C122.222 22.6 122.726 22.72 123.312 22.72C123.723 22.72 124.078 22.68 124.376 22.6C124.68 22.5147 124.928 22.4027 125.12 22.264C125.318 22.1253 125.467 21.976 125.568 21.816C125.67 21.6507 125.728 21.488 125.744 21.328H127.472C127.44 21.6747 127.326 22.0187 127.128 22.36C126.936 22.696 126.662 23.0027 126.304 23.28C125.952 23.552 125.52 23.7707 125.008 23.936C124.502 24.096 123.918 24.176 123.256 24.176C122.371 24.176 121.595 23.9893 120.928 23.616C120.262 23.2427 119.742 22.7253 119.368 22.064C118.995 21.3973 118.808 20.6347 118.808 19.776C118.808 18.9013 118.998 18.1333 119.376 17.472C119.755 16.8107 120.28 16.296 120.952 15.928C121.624 15.5547 122.395 15.368 123.264 15.368C124.15 15.368 124.915 15.5547 125.56 15.928C126.211 16.3013 126.712 16.816 127.064 17.472C127.416 18.128 127.592 18.8827 127.592 19.736C127.592 19.8373 127.59 19.9547 127.584 20.088C127.579 20.2213 127.571 20.312 127.56 20.36H119.768ZM134.431 24V12.2H138.751C139.887 12.2 140.746 12.464 141.327 12.992C141.909 13.52 142.199 14.312 142.199 15.368C142.199 15.9867 142.079 16.5147 141.839 16.952C141.605 17.3893 141.319 17.728 140.983 17.968C140.653 18.2027 140.341 18.336 140.047 18.368C140.346 18.3893 140.637 18.4693 140.919 18.608C141.202 18.7467 141.437 18.96 141.623 19.248C141.81 19.536 141.903 19.9253 141.903 20.416C141.903 20.832 141.903 21.2533 141.903 21.68C141.903 22.1067 141.903 22.5307 141.903 22.952C141.903 23.192 141.922 23.4107 141.959 23.608C142.002 23.8 142.053 23.9307 142.111 24H140.359C140.311 23.92 140.269 23.7867 140.231 23.6C140.194 23.4133 140.175 23.1973 140.175 22.952C140.175 22.568 140.175 22.1813 140.175 21.792C140.175 21.4027 140.175 21.0133 140.175 20.624C140.175 20.1173 140.023 19.7387 139.719 19.488C139.421 19.232 138.983 19.104 138.407 19.104H135.655L136.127 18.488V24H134.431ZM136.127 18.344L135.655 17.664H138.423C138.797 17.664 139.133 17.576 139.431 17.4C139.73 17.2187 139.967 16.968 140.143 16.648C140.325 16.3227 140.415 15.944 140.415 15.512C140.415 14.8613 140.237 14.3867 139.879 14.088C139.522 13.7893 139.01 13.64 138.343 13.64H135.615L136.127 12.976V18.344ZM145.286 20.36V19.008H151.542L151.302 19.408C151.302 19.376 151.302 19.344 151.302 19.312C151.302 19.2747 151.302 19.2427 151.302 19.216C151.302 18.784 151.209 18.3867 151.022 18.024C150.836 17.656 150.556 17.3627 150.182 17.144C149.814 16.92 149.353 16.808 148.798 16.808C148.244 16.808 147.756 16.928 147.334 17.168C146.918 17.4027 146.593 17.7387 146.358 18.176C146.129 18.608 146.014 19.128 146.014 19.736C146.014 20.3547 146.126 20.888 146.35 21.336C146.574 21.7787 146.897 22.12 147.318 22.36C147.74 22.6 148.244 22.72 148.83 22.72C149.241 22.72 149.596 22.68 149.894 22.6C150.198 22.5147 150.446 22.4027 150.638 22.264C150.836 22.1253 150.985 21.976 151.086 21.816C151.188 21.6507 151.246 21.488 151.262 21.328H152.99C152.958 21.6747 152.844 22.0187 152.646 22.36C152.454 22.696 152.18 23.0027 151.822 23.28C151.47 23.552 151.038 23.7707 150.526 23.936C150.02 24.096 149.436 24.176 148.774 24.176C147.889 24.176 147.113 23.9893 146.446 23.616C145.78 23.2427 145.26 22.7253 144.886 22.064C144.513 21.3973 144.326 20.6347 144.326 19.776C144.326 18.9013 144.516 18.1333 144.894 17.472C145.273 16.8107 145.798 16.296 146.47 15.928C147.142 15.5547 147.913 15.368 148.782 15.368C149.668 15.368 150.433 15.5547 151.078 15.928C151.729 16.3013 152.23 16.816 152.582 17.472C152.934 18.128 153.11 18.8827 153.11 19.736C153.11 19.8373 153.108 19.9547 153.102 20.088C153.097 20.2213 153.089 20.312 153.078 20.36H145.286ZM159.645 24.168C158.792 24.168 158.027 23.9893 157.349 23.632C156.677 23.2693 156.147 22.7547 155.757 22.088C155.373 21.4213 155.181 20.6373 155.181 19.736C155.181 18.8347 155.373 18.0587 155.757 17.408C156.147 16.752 156.677 16.248 157.349 15.896C158.027 15.544 158.792 15.368 159.645 15.368C160.291 15.368 160.864 15.4667 161.365 15.664C161.867 15.856 162.291 16.112 162.637 16.432C162.984 16.752 163.248 17.104 163.429 17.488C163.611 17.872 163.701 18.256 163.701 18.64C163.701 18.6453 163.701 18.6533 163.701 18.664C163.701 18.6747 163.701 18.6853 163.701 18.696H161.981C161.981 18.6693 161.979 18.64 161.973 18.608C161.968 18.5707 161.963 18.536 161.957 18.504C161.915 18.1893 161.792 17.9093 161.589 17.664C161.387 17.4187 161.12 17.224 160.789 17.08C160.459 16.936 160.072 16.864 159.629 16.864C159.144 16.864 158.696 16.9707 158.285 17.184C157.88 17.392 157.555 17.7093 157.309 18.136C157.064 18.5627 156.941 19.096 156.941 19.736C156.941 20.376 157.061 20.9147 157.301 21.352C157.547 21.784 157.872 22.112 158.277 22.336C158.688 22.56 159.139 22.672 159.629 22.672C160.157 22.672 160.589 22.592 160.925 22.432C161.261 22.2667 161.515 22.048 161.685 21.776C161.856 21.4987 161.955 21.2 161.981 20.88H163.701C163.701 21.264 163.613 21.6533 163.437 22.048C163.261 22.4373 163.003 22.792 162.661 23.112C162.32 23.432 161.896 23.688 161.389 23.88C160.888 24.072 160.307 24.168 159.645 24.168ZM166.123 24V15.504H167.835V24H166.123ZM166.987 13.744C166.688 13.744 166.43 13.664 166.211 13.504C165.998 13.3387 165.891 13.112 165.891 12.824C165.891 12.5413 165.998 12.32 166.211 12.16C166.43 11.9947 166.688 11.912 166.987 11.912C167.28 11.912 167.534 11.9947 167.747 12.16C167.966 12.32 168.075 12.5413 168.075 12.824C168.075 13.112 167.966 13.3387 167.747 13.504C167.534 13.664 167.28 13.744 166.987 13.744ZM170.626 27.496V15.504H172.362V27.496H170.626ZM175.098 24.168C174.437 24.168 173.823 24.0027 173.258 23.672C172.693 23.336 172.234 22.8773 171.882 22.296C171.535 21.7147 171.362 21.056 171.362 20.32C171.362 20.2987 171.362 20.2827 171.362 20.272C171.362 20.256 171.362 20.24 171.362 20.224L172.37 20.2C172.37 20.2107 172.37 20.224 172.37 20.24C172.37 20.2507 172.37 20.264 172.37 20.28C172.37 20.7173 172.482 21.112 172.706 21.464C172.935 21.8107 173.231 22.0853 173.594 22.288C173.957 22.4907 174.346 22.592 174.762 22.592C175.445 22.592 176.018 22.36 176.482 21.896C176.951 21.4267 177.186 20.7067 177.186 19.736C177.186 18.76 176.954 18.0427 176.49 17.584C176.026 17.12 175.45 16.888 174.762 16.888C174.346 16.888 173.957 16.9893 173.594 17.192C173.231 17.3893 172.935 17.6613 172.706 18.008C172.482 18.3493 172.37 18.7413 172.37 19.184L171.362 19.144C171.362 18.4027 171.535 17.7493 171.882 17.184C172.234 16.6133 172.693 16.168 173.258 15.848C173.823 15.528 174.437 15.368 175.098 15.368C175.786 15.368 176.423 15.5387 177.01 15.88C177.597 16.216 178.069 16.7093 178.426 17.36C178.789 18.0107 178.97 18.8027 178.97 19.736C178.97 20.6907 178.794 21.4987 178.442 22.16C178.09 22.8213 177.621 23.3227 177.034 23.664C176.447 24 175.802 24.168 175.098 24.168ZM181.988 20.36V19.008H188.244L188.004 19.408C188.004 19.376 188.004 19.344 188.004 19.312C188.004 19.2747 188.004 19.2427 188.004 19.216C188.004 18.784 187.91 18.3867 187.724 18.024C187.537 17.656 187.257 17.3627 186.884 17.144C186.516 16.92 186.054 16.808 185.5 16.808C184.945 16.808 184.457 16.928 184.036 17.168C183.62 17.4027 183.294 17.7387 183.06 18.176C182.83 18.608 182.716 19.128 182.716 19.736C182.716 20.3547 182.828 20.888 183.052 21.336C183.276 21.7787 183.598 22.12 184.02 22.36C184.441 22.6 184.945 22.72 185.532 22.72C185.942 22.72 186.297 22.68 186.596 22.6C186.9 22.5147 187.148 22.4027 187.34 22.264C187.537 22.1253 187.686 21.976 187.788 21.816C187.889 21.6507 187.948 21.488 187.964 21.328H189.692C189.66 21.6747 189.545 22.0187 189.348 22.36C189.156 22.696 188.881 23.0027 188.524 23.28C188.172 23.552 187.74 23.7707 187.228 23.936C186.721 24.096 186.137 24.176 185.476 24.176C184.59 24.176 183.814 23.9893 183.148 23.616C182.481 23.2427 181.961 22.7253 181.588 22.064C181.214 21.3973 181.028 20.6347 181.028 19.776C181.028 18.9013 181.217 18.1333 181.596 17.472C181.974 16.8107 182.5 16.296 183.172 15.928C183.844 15.5547 184.614 15.368 185.484 15.368C186.369 15.368 187.134 15.5547 187.78 15.928C188.43 16.3013 188.932 16.816 189.284 17.472C189.636 18.128 189.812 18.8827 189.812 19.736C189.812 19.8373 189.809 19.9547 189.804 20.088C189.798 20.2213 189.79 20.312 189.78 20.36H181.988ZM195.571 24.168C195.064 24.168 194.587 24.112 194.139 24C193.691 23.888 193.296 23.7253 192.955 23.512C192.619 23.2933 192.355 23.024 192.163 22.704C191.976 22.384 191.883 22.0133 191.883 21.592C191.883 21.5547 191.883 21.5173 191.883 21.48C191.883 21.4373 191.883 21.4027 191.883 21.376H193.611C193.611 21.4027 193.611 21.4267 193.611 21.448C193.611 21.4693 193.611 21.4987 193.611 21.536C193.611 21.9253 193.789 22.2213 194.147 22.424C194.509 22.6213 195 22.72 195.619 22.72C195.981 22.72 196.312 22.6827 196.611 22.608C196.915 22.5333 197.155 22.4187 197.331 22.264C197.512 22.1093 197.603 21.912 197.603 21.672C197.603 21.2827 197.411 21.0053 197.027 20.84C196.648 20.6747 196.072 20.528 195.299 20.4C194.877 20.3253 194.469 20.2293 194.075 20.112C193.685 19.9947 193.333 19.84 193.019 19.648C192.709 19.4507 192.461 19.208 192.275 18.92C192.093 18.6267 192.003 18.2747 192.003 17.864C192.003 17.3307 192.163 16.8773 192.483 16.504C192.803 16.1307 193.235 15.848 193.779 15.656C194.323 15.464 194.923 15.368 195.579 15.368C196.213 15.368 196.8 15.472 197.339 15.68C197.883 15.8827 198.32 16.1787 198.651 16.568C198.981 16.952 199.147 17.424 199.147 17.984C199.147 18.0053 199.147 18.0293 199.147 18.056C199.147 18.0827 199.147 18.1067 199.147 18.128H197.427C197.427 18.1067 197.427 18.088 197.427 18.072C197.427 18.056 197.427 18.0373 197.427 18.016C197.427 17.7387 197.339 17.512 197.163 17.336C196.987 17.16 196.757 17.0293 196.475 16.944C196.197 16.8533 195.901 16.808 195.587 16.808C195.299 16.808 195.008 16.84 194.715 16.904C194.427 16.9627 194.187 17.0667 193.995 17.216C193.803 17.36 193.707 17.5573 193.707 17.808C193.707 18.064 193.8 18.2693 193.987 18.424C194.173 18.5733 194.437 18.6987 194.779 18.8C195.12 18.896 195.517 18.984 195.971 19.064C196.387 19.1387 196.792 19.2347 197.187 19.352C197.581 19.464 197.936 19.6133 198.251 19.8C198.571 19.9867 198.824 20.2267 199.011 20.52C199.203 20.8133 199.299 21.1733 199.299 21.6C199.299 22.0427 199.197 22.424 198.995 22.744C198.792 23.064 198.515 23.3307 198.163 23.544C197.816 23.752 197.419 23.9067 196.971 24.008C196.528 24.1147 196.061 24.168 195.571 24.168Z" fill="#797D86"/>
<rect x="0.773842" y="0.773842" width="37.1444" height="37.1444" rx="18.5722" stroke="#FCC436" stroke-width="1.54768"/>
<path d="M19.445 31.2987C19.3342 31.2987 19.2252 31.2703 19.1285 31.2161C17.1597 30.0629 15.3119 28.7145 13.6131 27.1914C9.88846 23.8393 8 20.4987 8 17.2624C8.00038 15.9229 8.43014 14.6187 9.22619 13.5414C10.0222 12.4641 11.1427 11.6704 12.423 11.2767C13.7033 10.883 15.0762 10.9101 16.34 11.3539C17.6038 11.7978 18.6921 12.6352 19.445 13.743C20.1979 12.6352 21.2862 11.7978 22.55 11.3539C23.8138 10.9101 25.1867 10.883 26.467 11.2767C27.7473 11.6704 28.8678 12.4641 29.6638 13.5414C30.4599 14.6187 30.8896 15.9229 30.89 17.2624C30.89 20.4987 29.0015 23.8393 25.2769 27.1914C23.5781 28.7145 21.7303 30.0629 19.7615 31.2161C19.6648 31.2703 19.5558 31.2987 19.445 31.2987Z" fill="#FCC436"/>
</svg>
